<svg width="64" height="64" viewBox="0 0 64 64" fill="none" xmlns="http://www.w3.org/2000/svg">
<path d="M31.0075 31.9925V32.9925H32.0075H62.9991C62.4715 49.6543 48.7978 63 32.0075 63C14.8825 63 1 49.1175 1 31.9925C1 15.2022 14.3456 1.52848 31.0075 1.00088V1.00217V1.01962V1.03764V1.05624V1.0754V1.09514V1.11544V1.1363V1.15773V1.17971V1.20225V1.22534V1.24899V1.27318V1.29792V1.32321V1.34903V1.3754V1.4023V1.42974V1.45771V1.48621V1.51524V1.54479V1.57487V1.60547V1.63658V1.66821V1.70035V1.73301V1.76617V1.79984V1.83401V1.86868V1.90385V1.93952V1.97568V2.01234V2.04948V2.08711V2.12522V2.16382V2.20289V2.24245V2.28248V2.32298V2.36395V2.40539V2.44729V2.48966V2.53248V2.57577V2.61951V2.6637V2.70835V2.75344V2.79898V2.84497V2.89139V2.93826V2.98556V3.03329V3.08146V3.13006V3.17908V3.22853V3.2784V3.32869V3.3794V3.43052V3.48205V3.534V3.58635V3.63911V3.69227V3.74584V3.7998V3.85416V3.90891V3.96405V4.01958V4.07549V4.1318V4.18848V4.24554V4.30298V4.36079V4.41898V4.47753V4.53645V4.59574V4.65539V4.71539V4.77576V4.83648V4.89756V4.95898V5.02076V5.08287V5.14534V5.20814V5.27128V5.33476V5.39857V5.46271V5.52718V5.59198V5.6571V5.72255V5.78831V5.85439V5.92079V5.98749V6.05451V6.12183V6.18946V6.25739V6.32563V6.39416V6.46298V6.5321V6.60151V6.67121V6.74119V6.81146V6.882V6.95283V7.02393V7.09531V7.16696V7.23887V7.31106V7.3835V7.45621V7.52918V7.60241V7.67589V7.74963V7.82361V7.89784V7.97232V8.04704V8.122V8.19719V8.27263V8.34829V8.42419V8.50032V8.57667V8.65324V8.73004V8.80706V8.88429V8.96173V9.03939V9.11726V9.19533V9.27361V9.35209V9.43077V9.50965V9.58872V9.66799V9.74744V9.82709V9.90691V9.98693V10.0671V10.1475V10.228V10.3088V10.3896V10.4707V10.5519V10.6333V10.7149V10.7966V10.8784V10.9605V11.0426V11.125V11.2074V11.29V11.3728V11.4557V11.5387V11.6219V11.7052V11.7886V11.8722V11.9559V12.0397V12.1236V12.2076V12.2918V12.3761V12.4605V12.545V12.6296V12.7143V12.7991V12.884V12.969V13.0541V13.1393V13.2246V13.3099V13.3954V13.4809V13.5665V13.6522V13.738V13.8238V13.9098V13.9957V14.0818V14.1679V14.2541V14.3403V14.4266V14.5129V14.5993V14.6857V14.7722V14.8588V14.9453V15.0319V15.1186V15.2053V15.292V15.3787V15.4655V15.5523V15.6391V15.726V15.8128V15.8997V15.9866V16.0735V16.1604V16.2473V16.3342V16.4211V16.508V16.5949V16.6818V16.7687V16.8556V16.9425V17.0294V17.1162V17.203V17.2898V17.3766V17.4633V17.55V17.6367V17.7234V17.81V17.8965V17.9831V18.0695V18.156V18.2424V18.3287V18.415V18.5012V18.5874V18.6735V18.7595V18.8455V18.9314V19.0172V19.103V19.1887V19.2743V19.3598V19.4453V19.5306V19.6159V19.7011V19.7862V19.8712V19.9561V20.0409V20.1256V20.2102V20.2947V20.3791V20.4633V20.5475V20.6315V20.7154V20.7992V20.8829V20.9665V21.0499V21.1332V21.2163V21.2994V21.3822V21.465V21.5476V21.6301V21.7124V21.7945V21.8765V21.9584V22.0401V22.1216V22.203V22.2842V22.3653V22.4461V22.5269V22.6074V22.6877V22.7679V22.8479V22.9277V23.0074V23.0868V23.1661V23.2451V23.324V23.4027V23.4811V23.5594V23.6375V23.7153V23.793V23.8704V23.9476V24.0246V24.1014V24.1779V24.2543V24.3304V24.4063V24.4819V24.5573V24.6325V24.7075V24.7822V24.8566V24.9308V25.0048V25.0785V25.152V25.2252V25.2982V25.3708V25.4433V25.5154V25.5873V25.659V25.7303V25.8014V25.8722V25.9428V26.013V26.083V26.1526V26.222V26.2911V26.3599V26.4284V26.4967V26.5646V26.6322V26.6995V26.7665V26.8332V26.8995V26.9656V27.0313V27.0968V27.1619V27.2266V27.2911V27.3552V27.419V27.4825V27.5456V27.6084V27.6708V27.7329V27.7946V27.856V27.9171V27.9778V28.0381V28.0981V28.1577V28.217V28.2759V28.3344V28.3926V28.4504V28.5078V28.5648V28.6215V28.6778V28.7336V28.7892V28.8443V28.899V28.9533V29.0073V29.0608V29.1139V29.1667V29.219V29.2709V29.3224V29.3735V29.4242V29.4744V29.5243V29.5737V29.6227V29.6713V29.7194V29.7671V29.8144V29.8612V29.9076V29.9536V29.9991V30.0441V30.0888V30.1329V30.1766V30.2199V30.2627V30.305V30.3469V30.3883V30.4292V30.4697V30.5097V30.5492V30.5883V30.6268V30.6649V30.7025V30.7396V30.7763V30.8124V30.848V30.8832V30.9178V30.9519V30.9856V31.0187V31.0513V31.0834V31.115V31.1461V31.1767V31.2067V31.2362V31.2652V31.2937V31.3216V31.349V31.3759V31.4022V31.428V31.4532V31.478V31.5021V31.5257V31.5488V31.5713V31.5932V31.6146V31.6354V31.6557V31.6754V31.6945V31.7131V31.7311V31.7485V31.7653V31.7816V31.7972V31.8123V31.8268V31.8407V31.854V31.8667V31.8789V31.8904V31.9013V31.9116V31.9213V31.9304V31.9389V31.9468V31.954V31.9607V31.9667V31.9721V31.9769V31.981V31.9845V31.9874V31.9896V31.9912V31.9922C31.0075 31.9924 31.0075 31.9925 32.0075 31.9925H31.0075Z" stroke="#4543A7" stroke-width="2"/>
</svg>
