<?xml version="1.0" encoding="UTF-8"?>
<svg id="Layer_2" data-name="Layer 2" xmlns="http://www.w3.org/2000/svg" viewBox="0 0 195.99 44.68">
  <defs>
    <style>
      .cls-1 {
        fill: #fff;
      }
    </style>
  </defs>
  <g id="Layer_1-2" data-name="Layer 1">
    <g>
      <path class="cls-1" d="M52.19,24.03c0-4.46,2.36-7.01,6.17-7.01,1.29,0,2.42,.39,3.62,1.42v-6.08c0-.94,.61-1.55,1.55-1.55h1.42c.94,0,1.55,.61,1.55,1.55v20.36c0,.94-.52,1.55-1.45,1.55h-1c-.94,0-1.49-.19-1.58-1.13l-.03-.26c-1.36,1.26-2.59,1.81-4.07,1.81-3.81,0-6.17-2.59-6.17-7.01v-3.65Zm9.79,5.43v-7.18c-.78-.78-1.75-1.46-2.88-1.46-1.71,0-2.33,1.13-2.33,3.72v2.62c0,2.59,.61,3.72,2.33,3.72,1.1,0,1.94-.58,2.88-1.42Z"/>
      <path class="cls-1" d="M76.6,23.87h1.39v-.29c0-1.78-.55-2.75-2.49-2.75-1.78,0-2.84,.32-3.14,.39-.97,.26-1.62-.13-1.84-1l-.19-.71c-.26-.97,.29-1.65,1.16-1.91,.58-.16,1.97-.58,4.01-.58,4.59,0,7.01,2.71,7.01,6.4v9.31c0,.94-.52,1.55-1.45,1.55h-.91c-.94,0-1.45-.26-1.58-1.26l-.03-.26c-1.03,1.29-2.3,1.94-4.04,1.94-3.36,0-5.62-2.04-5.62-5.53,0-3.91,3.43-5.3,7.73-5.3Zm-1.23,7.01c.97,0,1.97-.45,2.62-1.26v-2.52h-1.03c-1.84,0-3.49,.23-3.49,2.04,0,1.1,.65,1.75,1.91,1.75Z"/>
      <path class="cls-1" d="M86.46,20.67l-1.13-.16c-1.1-.16-1.55-.42-1.55-1.36v-.45c0-.94,.61-1.26,1.55-1.26h1.13v-3.59c0-.94,.61-1.55,1.55-1.55h1.42c.94,0,1.55,.61,1.55,1.55v3.59h2.23c.94,0,1.55,.42,1.55,1.36v.52c0,.94-.61,1.36-1.55,1.36h-2.23v8.31c0,1.26,.61,1.91,1.75,1.91,.42,0,.78-.03,1.16-.1,.84-.16,1.42,.03,1.62,.97l.19,.97c.19,.91-.29,1.58-1.23,1.78-.48,.1-1.26,.19-2,.19-3.98,0-6.01-2-6.01-5.24v-8.79Z"/>
      <path class="cls-1" d="M104.36,23.87h1.39v-.29c0-1.78-.55-2.75-2.49-2.75-1.78,0-2.84,.32-3.14,.39-.97,.26-1.62-.13-1.84-1l-.19-.71c-.26-.97,.29-1.65,1.16-1.91,.58-.16,1.97-.58,4.01-.58,4.59,0,7.01,2.71,7.01,6.4v9.31c0,.94-.52,1.55-1.45,1.55h-.91c-.94,0-1.45-.26-1.58-1.26l-.03-.26c-1.03,1.29-2.3,1.94-4.04,1.94-3.36,0-5.62-2.04-5.62-5.53,0-3.91,3.43-5.3,7.73-5.3Zm-1.23,7.01c.97,0,1.97-.45,2.62-1.26v-2.52h-1.03c-1.84,0-3.49,.23-3.49,2.04,0,1.1,.65,1.75,1.91,1.75Z"/>
      <path class="cls-1" d="M113.15,12.36c0-.94,.61-1.55,1.55-1.55h1.42c.94,0,1.55,.61,1.55,1.55v10.96l1.29-.39c.52-.16,.74-.45,.94-.9l1.45-3.46c.36-.84,.91-1.13,1.84-1.13h1.68c1,0,1.39,.74,1,1.62l-2.07,4.72c-.36,.84-.78,1.46-1.49,1.94l3.91,6.82c.48,.84,.13,1.75-.87,1.75h-1.68c-.94,0-1.55-.32-2-1.13l-3.23-6.04-.78,.19v5.43c0,.94-.61,1.55-1.55,1.55h-1.42c-.94,0-1.55-.61-1.55-1.55V12.36Z"/>
      <path class="cls-1" d="M127.7,24.13c0-3.69,2.55-7.11,7.11-7.11s7.14,3.59,7.14,7.11v2.33c0,.48-.39,.84-.84,.84h-8.89v.26c0,1.39,.29,3.33,3.14,3.33,1.52,0,2.68-.29,3.26-.42,.97-.23,1.68,.03,1.94,1.03l.16,.61c.23,.87-.13,1.62-1.07,1.91-.65,.19-2.39,.68-4.27,.68-5.49,0-7.69-3.56-7.69-7.14v-3.43Zm9.73,.06v-.42c0-1.49-.58-2.94-2.59-2.94s-2.62,1.49-2.62,2.94v.42h5.2Z"/>
      <path class="cls-1" d="M143.61,19.08c-.13-.94,.48-1.65,1.42-1.65h1.26c.94,0,1.62,.52,1.75,1.46l1.23,9.02c.19,1.49,.61,2.52,2.13,2.52,.58,0,1.2-.03,1.75-.19l.58-11.25c.07-1.1,.71-1.55,1.65-1.55h1.2c.94,0,1.62,.45,1.55,1.55l-.84,16.1c-.19,3.52-2.23,5.69-6.34,5.69h-1.78c-.94,0-1.58-.45-1.65-1.42l-.06-.87c-.06-1.03,.52-1.46,1.45-1.46h2.17c1.42,0,1.71-.94,1.84-2.17l.06-.87c-.71,.16-1.36,.29-2,.29-3.91,0-5.59-2.23-6.08-5.75l-1.29-9.44Z"/>
    </g>
    <path class="cls-1" d="M181.11,24.07h1.38v-.29c0-1.76-.54-2.72-2.46-2.72-1.76,0-2.82,.32-3.1,.38-.96,.26-1.6-.13-1.82-.99l-.19-.7c-.26-.96,.29-1.63,1.15-1.89,.58-.16,1.95-.58,3.97-.58,4.54,0,6.94,2.69,6.94,6.34v9.21c0,.93-.51,1.54-1.44,1.54h-.9c-.93,0-1.44-.26-1.57-1.25l-.03-.26c-1.02,1.28-2.27,1.92-4,1.92-3.33,0-5.57-2.02-5.57-5.47,0-3.87,3.39-5.25,7.65-5.25Zm-1.22,6.94c.96,0,1.95-.45,2.59-1.25v-2.5h-1.02c-1.82,0-3.46,.22-3.46,2.02,0,1.09,.64,1.73,1.89,1.73Z"/>
    <path class="cls-1" d="M30.28,31.86c-1.59,6.21-7.21,10.82-13.91,10.82-7.93,0-14.37-6.45-14.37-14.37,0-6.74,4.67-12.4,10.94-13.94v-2.06C5.56,13.88,0,20.45,0,28.3c0,9.03,7.34,16.37,16.37,16.37,7.81,0,14.35-5.5,15.97-12.82h-2.06Z"/>
    <polygon class="cls-1" points="15.4 0 15.4 8.97 17.4 8.97 17.4 2 42.7 2 42.7 27.31 34.62 27.31 34.62 29.31 44.7 29.31 44.7 0 15.4 0"/>
    <path class="cls-1" d="M189.81,19.24c0-.93,.61-1.54,1.54-1.54h1.41c.93,0,1.54,.61,1.54,1.54v13.6c0,.93-.61,1.54-1.54,1.54h-1.41c-.93,0-1.54-.61-1.54-1.54v-13.6Z"/>
    <path class="cls-1" d="M165.77,23.44c2.22,0,3.96,1.74,3.96,3.96s-1.74,3.91-3.96,3.91-3.91-1.74-3.91-3.91,1.79-3.96,3.91-3.96Z"/>
    <path class="cls-1" d="M15.37,12.21V29.35h17.14c-.18-9.36-7.77-16.95-17.14-17.14Z"/>
    <path class="cls-1" d="M192.03,6.07c2.22,0,3.96,1.74,3.96,3.96s-1.74,3.91-3.96,3.91-3.91-1.74-3.91-3.91,1.79-3.96,3.91-3.96Z"/>
  </g>
</svg>