<?xml version="1.0" encoding="UTF-8"?><svg id="Layer_2" xmlns="http://www.w3.org/2000/svg" viewBox="0 0 182.93 44.68"><defs><style>.cls-1{fill:#fff;stroke-width:0px;}</style></defs><g id="Layer_1-2"><path class="cls-1" d="m52.34,23.73c0-4.15,2.2-6.52,5.74-6.52,1.2,0,2.26.36,3.37,1.32v-5.65c0-.87.57-1.44,1.44-1.44h1.32c.87,0,1.44.57,1.44,1.44v18.94c0,.87-.48,1.44-1.35,1.44h-.93c-.87,0-1.38-.18-1.47-1.05l-.03-.24c-1.26,1.17-2.41,1.68-3.79,1.68-3.55,0-5.74-2.41-5.74-6.52v-3.4Zm9.11,5.05v-6.67c-.72-.72-1.62-1.35-2.68-1.35-1.59,0-2.16,1.05-2.16,3.46v2.44c0,2.41.57,3.46,2.16,3.46,1.02,0,1.8-.54,2.68-1.32Z"/><path class="cls-1" d="m75.04,23.58h1.29v-.27c0-1.65-.51-2.56-2.32-2.56-1.65,0-2.65.3-2.92.36-.9.24-1.5-.12-1.71-.93l-.18-.66c-.24-.9.27-1.53,1.08-1.77.54-.15,1.83-.54,3.73-.54,4.27,0,6.52,2.53,6.52,5.95v8.66c0,.87-.48,1.44-1.35,1.44h-.84c-.87,0-1.35-.24-1.47-1.17l-.03-.24c-.96,1.2-2.13,1.8-3.76,1.8-3.13,0-5.23-1.89-5.23-5.14,0-3.64,3.19-4.93,7.19-4.93Zm-1.14,6.53c.9,0,1.83-.42,2.44-1.17v-2.35h-.96c-1.71,0-3.25.21-3.25,1.89,0,1.02.6,1.62,1.77,1.62Z"/><path class="cls-1" d="m84.21,20.6l-1.05-.15c-1.02-.15-1.44-.39-1.44-1.26v-.42c0-.87.57-1.17,1.44-1.17h1.05v-3.34c0-.87.57-1.44,1.44-1.44h1.32c.87,0,1.44.57,1.44,1.44v3.34h2.07c.87,0,1.44.39,1.44,1.26v.48c0,.87-.57,1.26-1.44,1.26h-2.07v7.73c0,1.17.57,1.77,1.62,1.77.39,0,.72-.03,1.08-.09.78-.15,1.32.03,1.5.9l.18.9c.18.84-.27,1.47-1.14,1.65-.45.09-1.17.18-1.86.18-3.7,0-5.59-1.86-5.59-4.87v-8.18Z"/><path class="cls-1" d="m100.87,23.58h1.29v-.27c0-1.65-.51-2.56-2.32-2.56-1.65,0-2.65.3-2.92.36-.9.24-1.5-.12-1.71-.93l-.18-.66c-.24-.9.27-1.53,1.08-1.77.54-.15,1.83-.54,3.73-.54,4.27,0,6.52,2.53,6.52,5.95v8.66c0,.87-.48,1.44-1.35,1.44h-.84c-.87,0-1.35-.24-1.47-1.17l-.03-.24c-.96,1.2-2.13,1.8-3.76,1.8-3.13,0-5.23-1.89-5.23-5.14,0-3.64,3.19-4.93,7.19-4.93Zm-1.14,6.53c.9,0,1.83-.42,2.44-1.17v-2.35h-.96c-1.71,0-3.25.21-3.25,1.89,0,1.02.6,1.62,1.77,1.62Z"/><path class="cls-1" d="m109.05,12.87c0-.87.57-1.44,1.44-1.44h1.32c.87,0,1.44.57,1.44,1.44v10.19l1.2-.36c.48-.15.69-.42.87-.84l1.35-3.22c.33-.78.84-1.05,1.71-1.05h1.56c.93,0,1.29.69.93,1.5l-1.92,4.39c-.33.78-.72,1.35-1.38,1.8l3.64,6.34c.45.78.12,1.62-.81,1.62h-1.56c-.87,0-1.44-.3-1.86-1.05l-3.01-5.62-.72.18v5.05c0,.87-.57,1.44-1.44,1.44h-1.32c-.87,0-1.44-.57-1.44-1.44V12.87Z"/><path class="cls-1" d="m122.58,23.82c0-3.43,2.38-6.62,6.61-6.62s6.65,3.34,6.65,6.62v2.16c0,.45-.36.78-.78.78h-8.27v.24c0,1.29.27,3.1,2.92,3.1,1.41,0,2.5-.27,3.04-.39.9-.21,1.56.03,1.8.96l.15.57c.21.81-.12,1.5-.99,1.77-.6.18-2.22.63-3.97.63-5.11,0-7.16-3.31-7.16-6.64v-3.19Zm9.05.06v-.39c0-1.38-.54-2.74-2.41-2.74s-2.44,1.38-2.44,2.74v.39h4.84Z"/><path class="cls-1" d="m137.37,19.13c-.12-.87.45-1.53,1.32-1.53h1.17c.87,0,1.5.48,1.62,1.35l1.14,8.39c.18,1.38.57,2.35,1.98,2.35.54,0,1.11-.03,1.62-.18l.54-10.46c.06-1.02.66-1.44,1.53-1.44h1.11c.87,0,1.5.42,1.44,1.44l-.78,14.97c-.18,3.28-2.07,5.29-5.89,5.29h-1.65c-.87,0-1.47-.42-1.53-1.32l-.06-.81c-.06-.96.48-1.35,1.35-1.35h2.01c1.32,0,1.59-.87,1.71-2.01l.06-.81c-.66.15-1.26.27-1.86.27-3.64,0-5.2-2.07-5.65-5.35l-1.2-8.78Z"/><path class="cls-1" d="m157.05,24.05c1.38,0,2.47,1.08,2.47,2.47s-1.08,2.44-2.47,2.44-2.44-1.08-2.44-2.44,1.11-2.47,2.44-2.47Z"/><path class="cls-1" d="m170.27,23.58h1.29v-.27c0-1.65-.51-2.56-2.32-2.56-1.65,0-2.65.3-2.92.36-.9.24-1.5-.12-1.71-.93l-.18-.66c-.24-.9.27-1.53,1.08-1.77.54-.15,1.83-.54,3.73-.54,4.27,0,6.52,2.53,6.52,5.95v8.66c0,.87-.48,1.44-1.35,1.44h-.84c-.87,0-1.35-.24-1.47-1.17l-.03-.24c-.96,1.2-2.13,1.8-3.76,1.8-3.13,0-5.23-1.89-5.23-5.14,0-3.64,3.19-4.93,7.19-4.93Zm-1.14,6.53c.9,0,1.83-.42,2.44-1.17v-2.35h-.96c-1.71,0-3.25.21-3.25,1.89,0,1.02.6,1.62,1.77,1.62Z"/><path class="cls-1" d="m178.18,13.2c0-1.29,1.02-2.28,2.38-2.28s2.38.99,2.38,2.28-1.02,2.29-2.38,2.29-2.38-.99-2.38-2.29Zm.27,5.83c0-.87.57-1.44,1.44-1.44h1.32c.87,0,1.44.57,1.44,1.44v12.78c0,.87-.57,1.44-1.44,1.44h-1.32c-.87,0-1.44-.57-1.44-1.44v-12.78Z"/><path class="cls-1" d="m30.28,31.86c-1.59,6.21-7.21,10.82-13.91,10.82-7.93,0-14.37-6.45-14.37-14.37,0-6.74,4.67-12.4,10.94-13.94v-2.06C5.56,13.88,0,20.45,0,28.3c0,9.03,7.34,16.37,16.37,16.37,7.81,0,14.35-5.5,15.97-12.82h-2.06Z"/><polygon class="cls-1" points="15.4 0 15.4 8.97 17.4 8.97 17.4 2 42.7 2 42.7 27.31 34.62 27.31 34.62 29.31 44.7 29.31 44.7 0 15.4 0"/><path class="cls-1" d="m15.37,12.21v17.14h17.14c-.18-9.36-7.77-16.95-17.14-17.14Z"/></g></svg>