<?xml version="1.0" encoding="UTF-8"?>
<svg id="Layer_2" data-name="Layer 2" xmlns="http://www.w3.org/2000/svg" xmlns:xlink="http://www.w3.org/1999/xlink" viewBox="0 0 126.18 150.01">
  <defs>
    <style>
      .cls-1 {
        fill: #61a6ae;
      }

      .cls-1, .cls-2, .cls-3, .cls-4, .cls-5, .cls-6, .cls-7, .cls-8, .cls-9, .cls-10, .cls-11, .cls-12, .cls-13, .cls-14, .cls-15, .cls-16, .cls-17, .cls-18, .cls-19, .cls-20 {
        stroke-width: 0px;
      }

      .cls-2 {
        fill: #9e3a2a;
      }

      .cls-3 {
        fill: url(#linear-gradient);
      }

      .cls-4 {
        fill: #42160b;
      }

      .cls-5 {
        fill: #175d84;
      }

      .cls-6 {
        fill: #46505d;
      }

      .cls-7 {
        fill: #233c5a;
      }

      .cls-8, .cls-15, .cls-19 {
        fill: #131c28;
      }

      .cls-9 {
        fill: none;
      }

      .cls-10 {
        fill: #684543;
      }

      .cls-11 {
        fill: #e3ad90;
      }

      .cls-12 {
        fill: #dda38a;
      }

      .cls-13 {
        fill: #d19782;
      }

      .cls-14 {
        fill: #fff;
      }

      .cls-15 {
        opacity: .4;
      }

      .cls-16 {
        fill: url(#linear-gradient-2);
      }

      .cls-21 {
        clip-path: url(#clippath);
      }

      .cls-17 {
        fill: #f9c0a1;
      }

      .cls-18 {
        fill: #090d22;
      }

      .cls-19 {
        opacity: .6;
      }

      .cls-20 {
        fill: #f0907a;
      }
    </style>
    <clipPath id="clippath">
      <circle class="cls-9" cx="62.01" cy="60.27" r="55.08"/>
    </clipPath>
    <linearGradient id="linear-gradient" x1="83.75" y1="53.58" x2="81.23" y2="53.58" gradientUnits="userSpaceOnUse">
      <stop offset=".14" stop-color="#c27e6f"/>
      <stop offset=".66" stop-color="#f9c0a1"/>
    </linearGradient>
    <linearGradient id="linear-gradient-2" x1="-4991.88" y1="53.58" x2="-4994.4" y2="53.58" gradientTransform="translate(-4951.53) rotate(-180) scale(1 -1)" xlink:href="#linear-gradient"/>
  </defs>
  <g id="Layer_1-2" data-name="Layer 1">
    <g class="cls-21">
      <rect class="cls-1" width="126.18" height="126.18"/>
      <g>
        <g>
          <g>
            <path class="cls-17" d="m47.34,76.68s1.66-3.79,1.66-8.28h25.95s-.11,5.87.85,8.28c0,0-7.28,12.12-13.94,12.12s-14.52-12.12-14.52-12.12Z"/>
            <path class="cls-11" d="m74.95,69.74s-7.68,9.05-13.87,10.33c-6.19,1.28-12.53-7.44-12.53-7.44,0,0,.22-.66.45-4.22h25.95v1.34Z"/>
          </g>
          <g>
            <rect class="cls-14" x="31.69" y="87.97" width="61.04" height="62.04"/>
            <g>
              <path class="cls-15" d="m46.12,85.57s2.88,6.65,8.33,11.93c0,0,.44-1.59,1.4-1.6s2.39.33,3.42,2.52l1.8-8.54-14.95-4.31Z"/>
              <path class="cls-15" d="m77.67,85.57s-2.88,6.65-8.33,11.93c0,0-.44-1.59-1.4-1.6s-2.39.33-3.42,2.52l-1.8-8.54,14.95-4.31Z"/>
              <g>
                <path class="cls-8" d="m56.87,90.91s1.52,2.7,1.58,4.22-.79,5.53-.79,5.53h8s-.67-3.31-.67-4.87,2.16-4.31,2.43-5.03-.16-3.66-1.98-3.66-6.35.03-7.34,0-1.98,1.95-1.23,3.82Z"/>
                <path class="cls-5" d="m57.36,86.12s4.33,1.72,9.13-.24c0,0,1,2.18,1.03,3.19s-2.96,3.26-2.88,6.22c.09,3.2.91,3.66,1.39,6.62s.11,5.15.99,18.69,1.2,29.41,1.2,29.41h-12.98s1.68-43.91,1.92-47.43,2.06-5.69,1.99-6.85-1.24-5.01-2.07-6.45.28-3.16.28-3.16Z"/>
                <path class="cls-19" d="m58.98,94.72s.3.89,0,1.86h5.74s-.13-1.42-.06-1.86h-5.68Z"/>
              </g>
              <path class="cls-14" d="m76.28,74.6s-3.31,6.41-13.56,11.96l6.78,9.99s9.29-11.96,10.15-14.15-3.36-7.8-3.36-7.8Z"/>
              <path class="cls-14" d="m47.51,74.6s3.31,6.41,13.56,11.96l-6.78,9.99s-9.29-11.96-10.15-14.15,3.36-7.8,3.36-7.8Z"/>
            </g>
            <g>
              <path class="cls-7" d="m76.07,73.85s5.07,4.43,7.64,5.23,21.84,6.09,26.97,8.01,4.91,3.95,5.98,8.44,6.09,34.95,7.16,54.48h-49.13l1.39-76.16Z"/>
              <g>
                <path class="cls-18" d="m110.67,87.1s-3.52,24.54-4,35.03.48,27.89.48,27.89h-4s2.62-41.24,7.53-62.92Z"/>
                <path class="cls-18" d="m81.57,132.03c-.16,0-.29-.13-.29-.29,0-.16.12-.3.29-.3,9.69-.26,19.08-2.06,19.18-2.08.16-.03.31.07.34.23.03.16-.07.31-.23.34-.09.02-9.53,1.82-19.27,2.09h0Z"/>
                <path class="cls-18" d="m83.7,79.09l4.54,7.8s-4.91,2.72-4.91,3.36.32.96,1.71,1.39,7.37,2.99,7.37,2.99l-17.73,55.39h1.79l17.08-55.4c.15-.49-.11-1.02-.6-1.19l-8.41-2.9,4.41-3.22c.26-.19.32-.56.13-.82l-5.38-7.4Z"/>
              </g>
            </g>
            <g>
              <path class="cls-7" d="m47.96,73.85s-5.07,4.43-7.64,5.23c-2.56.8-21.84,6.09-26.97,8.01s-4.91,3.95-5.98,8.44S1.29,130.48.22,150.01h49.13s-1.39-76.16-1.39-76.16Z"/>
              <g>
                <path class="cls-18" d="m13.36,87.1s3.52,24.54,4,35.03c.48,10.49-.48,27.89-.48,27.89h4s-2.62-41.24-7.53-62.92Z"/>
                <path class="cls-18" d="m42.46,132.03c.16,0,.29-.13.29-.29,0-.16-.12-.3-.29-.3-9.69-.26-19.08-2.06-19.18-2.08-.16-.03-.31.07-.34.23-.03.16.07.31.23.34.09.02,9.53,1.82,19.27,2.09h0Z"/>
                <path class="cls-18" d="m40.32,79.09l-4.54,7.8s4.91,2.72,4.91,3.36-.32.96-1.71,1.39-7.37,2.99-7.37,2.99l17.73,55.39h-1.79s-17.08-55.4-17.08-55.4c-.15-.49.11-1.02.6-1.19l8.41-2.9-4.41-3.22c-.26-.19-.32-.56-.13-.82l5.38-7.4Z"/>
              </g>
            </g>
          </g>
        </g>
        <g>
          <path class="cls-17" d="m62.05,26.15h0c-.07,0-.14,0-.21,0-.07,0-.14,0-.21,0h0c-8.32.05-18.74,1.66-18.48,9.87.26,8.34.99,22.37,2.06,27.3,1.04,4.82,7.81,13.15,14.37,13.47h4.59c6.56-.32,14.06-10.82,15.1-15.64,1.07-4.93,1.12-17.06,1.38-25.4.26-8.2-10.27-9.54-18.59-9.58Z"/>
          <g>
            <g>
              <path class="cls-17" d="m79.92,51.4c-.02-1.61.15-3.73,2.57-3.84s2.58,3.09,2.41,4.59-.72,4.64-2.03,6.59-2.48,2.5-3.62,2.39c0,0,.39-3.42.47-5.51s.2-3.78.19-4.23Z"/>
              <path class="cls-3" d="m82.7,48.85c.62-.1,1.06,1.59,1.04,2.94s.13,3.23-.52,4.48-1.75,2.15-1.96,2.04.63-1.54.6-2.73-.65-3.32-.64-4.61.35-1.94,1.47-2.13Z"/>
            </g>
            <g>
              <path class="cls-17" d="m44.17,51.4c.02-1.61-.15-3.73-2.57-3.84s-2.58,3.09-2.41,4.59.72,4.64,2.03,6.59,2.48,2.5,3.62,2.39c0,0-.39-3.42-.47-5.51s-.2-3.78-.19-4.23Z"/>
              <path class="cls-16" d="m41.39,48.85c-.62-.1-1.06,1.59-1.04,2.94s-.13,3.23.52,4.48,1.75,2.15,1.96,2.04-.63-1.54-.6-2.73.65-3.32.64-4.61-.35-1.94-1.47-2.13Z"/>
            </g>
            <g>
              <path class="cls-18" d="m44.56,53.44c.13-.02.23-.13.25-.26.2-1.48.77-9.84.71-10.94-.07-1.21,1.71-2.49,2.43-4.18.87-2.03,1.29-8.16,4.11-8.99,3-.88,14.83,2.3,20.61,0,0,0,5.16,4.14,4.63,9.13s1.56,7.93,1.56,11.69c0,0,.48,3.28,1.13,3.28,0,0,2.69-15.78,2.51-20.21s-2.29-9.5-8.2-8.78c0,0-2.82-5.88-14.23-6.28s-15.4,5.8-15.4,5.8c0,0,1.95-.05,3.05-.55,0,0-6.25,4.09-7.37,8.12s-.82,9.5,0,11.43c.73,1.72,2.91,9.03,3.37,10.58.05.17.22.27.39.24l.45-.08Z"/>
              <path class="cls-18" d="m74.5,24.27s-1.51-7.05-6.62-7.63c0,0,4.76,1.3,6.07,7.73l.55-.1Z"/>
              <path class="cls-18" d="m73.67,24s-5.24-8.72-13.01-7.3c0,0,7.88-.29,11.75,7.76l1.26-.46Z"/>
            </g>
            <g>
              <path class="cls-6" d="m50.6,27.89s-3.9,1.61-4.54,7.01c0,0-2.29-5.8,4.54-7.01Z"/>
              <path class="cls-6" d="m62.42,18.95s-9.21-1.21-14.71,3.06c0,0,10.58-2.01,13.81,0,0,0-13.02-.79-18.66,7.05,0,0,5.63-4.26,8.69-4.61s9.98.73,15.38-1.3c0,0-3.98-4.73-14.87-2.37,0,0,6.36-1.73,10.36-1.83Z"/>
              <path class="cls-6" d="m74.29,25.39l-1.16,1.69s5-.08,6.69,3.22c0,0-.1-4.27-5.53-4.91Z"/>
            </g>
          </g>
          <g>
            <g>
              <g>
                <path class="cls-14" d="m50.86,48.97s-.31.32-.31.5,1.17,1.25,2.8,1.25,2.61-1.04,2.94-1.7c0,0-.7-1.16-2.71-1.12s-2.72,1.06-2.72,1.06Z"/>
                <path class="cls-18" d="m56.3,49.14s-.64-1.07-2.7-1.07-2.97,1.28-2.97,1.28l-.03-.1s.46-1.49,3.05-1.49c2.07,0,2.75,1.22,2.75,1.22l-.11.15Z"/>
                <g>
                  <circle class="cls-18" cx="53.3" cy="49.14" r="1.24"/>
                  <circle class="cls-4" cx="53.3" cy="49.14" r="1.05"/>
                  <circle class="cls-18" cx="53.3" cy="49.14" r=".75"/>
                  <circle class="cls-14" cx="52.75" cy="48.67" r=".24"/>
                </g>
              </g>
              <g>
                <path class="cls-14" d="m72.36,48.87s.31.32.31.5-1.17,1.25-2.8,1.25-2.61-1.04-2.94-1.7c0,0,.7-1.16,2.71-1.12s2.72,1.06,2.72,1.06Z"/>
                <path class="cls-18" d="m66.93,49.03s.64-1.07,2.7-1.07,2.97,1.28,2.97,1.28l.03-.1s-.46-1.49-3.05-1.49c-2.07,0-2.75,1.22-2.75,1.22l.11.15Z"/>
                <g>
                  <circle class="cls-18" cx="69.72" cy="48.95" r="1.24"/>
                  <path class="cls-4" d="m69.72,47.9c.58,0,1.05.47,1.05,1.05,0,.58-.47,1.05-1.05,1.05s-1.05-.47-1.05-1.05.47-1.05,1.05-1.05Z"/>
                  <path class="cls-18" d="m69.72,48.2c.42,0,.75.34.75.75s-.34.75-.75.75-.75-.34-.75-.75.34-.75.75-.75Z"/>
                  <path class="cls-14" d="m69.25,48.15c.14,0,.24.11.24.24s-.11.24-.24.24-.24-.11-.24-.24.11-.24.24-.24Z"/>
                </g>
              </g>
              <path class="cls-18" d="m57.93,45.48l.07-.31c.12-.57-.3-1.1-.88-1.12-1.2-.04-3.18-.09-5.06-.07-2.76.03-3.62.27-5.04,1.62-.1.1-.03.27.11.26.95-.09,3.32-.29,5.33-.18,2.26.12,3.89.16,4.95.2.24.01.46-.16.51-.39Z"/>
              <path class="cls-18" d="m64.43,45.48l-.07-.31c-.13-.57.31-1.1.92-1.12,1.26-.04,3.35-.09,5.32-.07,2.9.03,3.81.27,5.3,1.62.11.1.03.27-.12.26-1-.09-3.49-.29-5.61-.18-2.38.12-4.1.16-5.21.2-.26.01-.48-.16-.53-.39Z"/>
              <g>
                <g>
                  <path class="cls-10" d="m65.21,59.36c.27.16,0,.45-.76.46-.52,0-1.24.54-1.35.4s1.22-1.39,2.11-.86Z"/>
                  <path class="cls-10" d="m57.94,59.36c-.27.16,0,.45.76.46.52,0,1.24.54,1.35.4s-1.22-1.39-2.11-.86Z"/>
                </g>
                <g>
                  <path class="cls-12" d="m65.13,55.27s1.14,1.6,1,3.25c0,0,.58-1.93-1-3.25Z"/>
                  <path class="cls-13" d="m55.59,47s-1.56-.47-3.53-.17-2.45.83-2.85.48,4.26-1.57,6.38-.31Z"/>
                  <path class="cls-12" d="m67.89,46.83s1.52-.58,3.51-.44,2.51.65,2.88.27-4.36-1.25-6.39.17Z"/>
                  <path class="cls-12" d="m60.62,41.81s.42,2.92-.86,3.56c0,0,1.84.08.86-3.56Z"/>
                </g>
              </g>
            </g>
            <g>
              <g>
                <path class="cls-20" d="m67.83,65.58s-2.66-1.33-3.71-1.36-1.21.15-1.84.15-1.18-.17-2.12-.11c-1.99.13-2.94,1.18-4.21,1.47,0,0,3.37,2.18,5.82,2.18s4.2-1.45,4.98-1.73,1.09-.6,1.09-.6Z"/>
                <path class="cls-2" d="m67.83,65.58c-.48.08-.97.14-1.47.13-.5-.02-.98-.13-1.46-.17-.24-.02-.48-.02-.71,0-.12.01-.23.03-.35.05-.12.02-.22.05-.35.08-.5.11-1.01.09-1.51.05-.49-.04-.98-.12-1.46-.16-.24-.03-.47-.03-.71-.03-.24,0-.49.02-.73.03l-1.46.09c-.49.03-.98.06-1.47.08.97-.14,1.94-.27,2.91-.35.49-.04.99-.09,1.49-.03.49.04.98.11,1.46.15.48.04.96.05,1.42-.03.11-.02.24-.05.36-.07.12-.02.25-.04.38-.05.25-.02.51-.01.76.01.5.04.97.16,1.45.21.48.03.97.02,1.46,0Z"/>
              </g>
              <path class="cls-12" d="m59.15,70.12s3.14-1.23,5.66,0c0,0-2.34-2.38-5.66,0Z"/>
            </g>
          </g>
          <g>
            <rect class="cls-18" x="43.83" y="46.02" width="2.71" height=".61"/>
            <rect class="cls-18" x="76.81" y="46.02" width="2.71" height=".61" transform="translate(156.34 92.66) rotate(-180)"/>
            <path class="cls-18" d="m77.27,46.26h0v-.11l-.06-.07c-.1-.11-.16-.15-.23-.21-.07-.05-.15-.1-.23-.14-.15-.08-.31-.16-.46-.22-.31-.12-.63-.21-.95-.27-.64-.13-1.28-.18-1.92-.2-1.26-.02-2.51,0-3.77.02-.63.01-1.26.03-1.88.06-.31.02-.63.03-.95.06-.31.02-.65.06-.97.13-.64.14-1.28.32-1.87.75-.15.11-.29.24-.41.41-.05.07-.09.16-.13.24h-3.53c-.04-.09-.08-.17-.13-.24-.12-.17-.26-.3-.41-.41-.59-.42-1.23-.61-1.87-.75-.32-.07-.66-.11-.97-.13-.32-.02-.63-.04-.95-.06-.63-.03-1.26-.05-1.88-.06-1.26-.02-2.5-.04-3.77-.02-.64.02-1.28.07-1.92.2-.32.07-.64.15-.95.27-.16.06-.31.13-.46.22-.08.04-.15.09-.23.14-.08.06-.14.1-.23.21l-.06.07v.11h0c0,1.06-.05,2.1,0,3.19.07,1.08.27,2.17.7,3.18.21.51.49.99.82,1.44.35.43.75.83,1.22,1.14.47.31.98.54,1.53.68.27.07.55.1.84.11h.79c.53-.01,1.06-.02,1.58-.01.52,0,1.07.03,1.63-.07.55-.1,1.08-.3,1.57-.6.48-.3.9-.68,1.26-1.11.35-.43.66-.9.89-1.4.23-.5.41-1.02.56-1.54.2-.74.35-1.47.43-2.23.03-.22.21-.39.43-.39h2.66c.22,0,.4.17.43.39.09.76.23,1.49.43,2.23.15.52.33,1.04.56,1.54.23.5.54.97.89,1.4.36.43.78.82,1.26,1.11.48.3,1.02.5,1.57.6.55.1,1.11.08,1.63.07.53,0,1.06,0,1.58,0h.79c.29,0,.57-.03.84-.11.54-.14,1.06-.37,1.53-.68.47-.31.87-.71,1.22-1.14.33-.45.62-.93.82-1.44.43-1.02.63-2.1.7-3.18.06-1.09,0-2.13,0-3.19Zm-17.99,1.77c-.13,2.02-.66,4.12-1.79,5.76-.57.81-1.4,1.44-2.38,1.65-.49.11-.99.11-1.53.11-.53,0-1.06,0-1.58,0h-.79c-.24-.02-.48-.06-.72-.13-.48-.13-.92-.38-1.32-.67-.39-.3-.74-.67-1.04-1.06-.29-.41-.55-.84-.74-1.31-.39-.93-.58-1.95-.66-2.97l-.03-.77c0-.26,0-.53-.01-.79l-.02-1.46s.04-.03.05-.04c.05-.04.11-.07.17-.11.12-.07.25-.13.39-.18.27-.1.56-.18.85-.24.59-.11,1.2-.16,1.81-.17,1.24,0,2.49.02,3.74.05.62.02,1.25.04,1.87.08.62.04,1.24.06,1.81.19.57.12,1.16.32,1.58.64.22.16.33.34.34.5v.92Zm17.38-.19c0,.26,0,.53-.01.79l-.03.77c-.08,1.02-.27,2.04-.66,2.97-.19.47-.45.9-.74,1.31-.3.39-.65.75-1.04,1.06-.4.29-.84.54-1.32.67-.24.07-.48.11-.72.12h-.79c-.53.02-1.06.02-1.58.02-.54,0-1.04,0-1.53-.11-.98-.21-1.81-.84-2.38-1.65-1.12-1.64-1.66-3.74-1.79-5.76v-.92c0-.15.12-.34.33-.5.42-.32,1.01-.51,1.58-.64.57-.12,1.19-.14,1.81-.19.62-.04,1.24-.06,1.87-.08,1.24-.04,2.5-.06,3.74-.05.61,0,1.22.05,1.81.17.29.06.58.13.85.24.14.05.27.11.39.18.06.03.12.07.17.11.02.01.04.03.05.04l-.02,1.46Z"/>
          </g>
        </g>
      </g>
    </g>
  </g>
</svg>