<?xml version="1.0" encoding="UTF-8"?>
<svg id="Layer_2" data-name="Layer 2" xmlns="http://www.w3.org/2000/svg" xmlns:xlink="http://www.w3.org/1999/xlink" viewBox="0 0 110.16 110.16">
  <defs>
    <style>
      .cls-1 {
        fill: url(#linear-gradient);
      }

      .cls-1, .cls-2, .cls-3, .cls-4, .cls-5, .cls-6, .cls-7, .cls-8, .cls-9, .cls-10, .cls-11, .cls-12, .cls-13, .cls-14, .cls-15, .cls-16, .cls-17, .cls-18, .cls-19, .cls-20, .cls-21, .cls-22, .cls-23 {
        stroke-width: 0px;
      }

      .cls-2 {
        fill: #42160b;
      }

      .cls-3 {
        fill: #a0d1d8;
      }

      .cls-4 {
        fill: #46505d;
      }

      .cls-5, .cls-14, .cls-23 {
        fill: #131c28;
      }

      .cls-6 {
        fill: #17202d;
      }

      .cls-7 {
        fill: none;
      }

      .cls-8 {
        fill: #684543;
      }

      .cls-24 {
        clip-path: url(#clippath-1);
      }

      .cls-9 {
        fill: #e3ad90;
      }

      .cls-10 {
        fill: #001635;
      }

      .cls-11 {
        fill: #dda38a;
      }

      .cls-12 {
        fill: #d19782;
      }

      .cls-13 {
        fill: #fff;
      }

      .cls-14 {
        opacity: .4;
      }

      .cls-15 {
        fill: url(#linear-gradient-2);
      }

      .cls-25 {
        clip-path: url(#clippath);
      }

      .cls-16 {
        fill: #a15836;
      }

      .cls-17 {
        fill: #abdcd9;
      }

      .cls-18 {
        fill: #f9c0a1;
      }

      .cls-19 {
        fill: #9f222a;
      }

      .cls-20 {
        fill: #090d22;
      }

      .cls-21 {
        fill: #cc8b70;
      }

      .cls-22 {
        fill: #1e3a57;
      }

      .cls-23 {
        opacity: .6;
      }
    </style>
    <clipPath id="clippath">
      <circle class="cls-7" cx="55.08" cy="55.08" r="55.08"/>
    </clipPath>
    <clipPath id="clippath-1">
      <rect class="cls-7" x="-3.63" y=".85" width="117.43" height="114.52"/>
    </clipPath>
    <linearGradient id="linear-gradient" x1="74.27" y1="45.79" x2="71.99" y2="45.79" gradientUnits="userSpaceOnUse">
      <stop offset=".14" stop-color="#c27e6f"/>
      <stop offset=".66" stop-color="#f9c0a1"/>
    </linearGradient>
    <linearGradient id="linear-gradient-2" x1="-5255.75" y1="45.79" x2="-5258.03" y2="45.79" gradientTransform="translate(-5220.8) rotate(-180) scale(1 -1)" xlink:href="#linear-gradient"/>
  </defs>
  <g id="Layer_1-2" data-name="Layer 1">
    <g class="cls-25">
      <rect class="cls-3" x="-3.63" y="-17.71" width="117.43" height="133.08"/>
      <g class="cls-24">
        <g>
          <g>
            <g>
              <path class="cls-18" d="m41.62,67.63s1.56-3.58,1.56-7.81h24.49s-.1,5.54.81,7.81c0,0-6.87,11.44-13.16,11.44s-13.7-11.44-13.7-11.44Z"/>
              <path class="cls-9" d="m67.68,61.08s-7.25,8.54-13.1,9.75c-5.85,1.21-12.37-4.88-12.37-4.88,0,0,.97-2.52.97-6.14h24.49v1.26Z"/>
            </g>
            <g>
              <rect class="cls-17" x="26.85" y="78.28" width="57.61" height="58.56"/>
              <g>
                <path class="cls-14" d="m40.47,76.02s2.72,6.27,7.86,11.26c0,0,.42-1.5,1.32-1.51s2.26.31,3.23,2.38l1.7-8.06-14.11-4.07Z"/>
                <path class="cls-14" d="m70.25,76.02s-2.72,6.27-7.86,11.26c0,0-.42-1.5-1.32-1.51s-2.26.31-3.23,2.38l-1.7-8.06,14.11-4.07Z"/>
                <g>
                  <path class="cls-5" d="m50.62,81.06s1.44,2.55,1.49,3.98-.74,5.22-.74,5.22h7.55s-.63-3.12-.63-4.6,2.04-4.07,2.29-4.75-.15-3.45-1.86-3.45-6,.03-6.93,0-1.86,1.84-1.16,3.6Z"/>
                  <path class="cls-19" d="m51.08,76.54s4.08,1.63,8.62-.23c0,0,.94,2.05.97,3.01s-2.8,3.07-2.72,5.87c.08,3.02.86,3.45,1.31,6.25s.1,4.86.93,17.64c.83,12.78,1.13,27.76,1.13,27.76h-12.25s1.59-41.44,1.81-44.77,1.94-5.37,1.88-6.46-1.17-4.72-1.95-6.09.26-2.99.26-2.99Z"/>
                  <path class="cls-23" d="m52.61,84.66s.28.84,0,1.75h5.42s-.12-1.34-.06-1.75h-5.36Z"/>
                </g>
                <path class="cls-13" d="m68.94,65.66s-3.12,6.05-12.8,11.29l6.4,9.42s8.77-11.29,9.58-13.36-3.18-7.36-3.18-7.36Z"/>
                <path class="cls-13" d="m41.78,65.66s3.12,6.05,12.8,11.29l-6.4,9.42s-8.77-11.29-9.58-13.36,3.18-7.36,3.18-7.36Z"/>
              </g>
              <g>
                <path class="cls-22" d="m68.74,64.96s4.79,4.18,7.21,4.94,20.61,5.75,25.45,7.56c4.84,1.81,4.64,3.73,5.64,7.96s5.75,32.99,6.75,51.42h-46.37l1.31-71.88Z"/>
                <g>
                  <path class="cls-10" d="m101.39,77.46s-3.33,23.16-3.78,33.06c-.45,9.9.45,26.32.45,26.32h-3.78s2.47-38.92,7.11-59.38Z"/>
                  <path class="cls-10" d="m75.94,69.9l4.28,7.36s-4.64,2.57-4.64,3.18.3.91,1.61,1.31,6.96,2.82,6.96,2.82l-16.73,52.28h1.69l16.12-52.28c.14-.47-.11-.96-.57-1.12l-7.94-2.74,4.16-3.04c.25-.18.3-.53.12-.77l-5.07-6.99Z"/>
                </g>
              </g>
              <g>
                <path class="cls-22" d="m42.21,64.96s-4.79,4.18-7.21,4.94c-2.42.76-20.61,5.75-25.45,7.56s-4.64,3.73-5.64,7.96-5.75,32.99-6.75,51.42h46.37s-1.31-71.88-1.31-71.88Z"/>
                <g>
                  <path class="cls-10" d="m9.55,77.46s3.33,23.16,3.78,33.06c.45,9.9-.45,26.32-.45,26.32h3.78s-2.47-38.92-7.11-59.38Z"/>
                  <path class="cls-10" d="m35,69.9l-4.28,7.36s4.64,2.57,4.64,3.18c0,.6-.3.91-1.61,1.31s-6.96,2.82-6.96,2.82l16.73,52.28h-1.69s-16.12-52.28-16.12-52.28c-.14-.47.11-.96.57-1.12l7.94-2.74-4.16-3.04c-.25-.18-.3-.53-.12-.77l5.07-6.99Z"/>
                </g>
              </g>
            </g>
          </g>
          <g>
            <g>
              <path class="cls-18" d="m54.6,20.94h0c-.06,0-.13,0-.19,0-.06,0-.13,0-.19,0h0c-7.54.04-16.33,1.26-16.1,8.69.24,7.56.79,21.16,1.76,25.63.95,4.37,8.39,11.26,14.34,11.55h0c.06.01.13,0,.19,0,.06,0,.13,0,.19,0h0c5.95-.31,13.39-7.2,14.34-11.57.97-4.47,1.53-18.07,1.76-25.63.23-7.43-8.56-8.65-16.1-8.69Z"/>
              <path class="cls-11" d="m54.35,51.86c-.31,0-.63,0-.86-.01-.2,0-.36-.18-.34-.39.15-2.04-.06-4.63-.06-9.02,0-3.25-.78-5.38-1.24-6.36-.18-.39-.57-.63-1-.63h-.65c-.56,0-.96-.54-.79-1.07.39-1.21,1.11-3.2,2.1-4.67,1.51-2.27,3.1-2.04,8.51-4.23,2.92-1.18,4.14-2.41,4.64-3.29-2.97-.97-6.64-1.23-10.05-1.25h0c-.06,0-.13,0-.19,0-.06,0-.13,0-.19,0h0c-7.54.04-16.33,1.26-16.1,8.69.24,7.56.79,21.16,1.76,25.63.91,4.19,7.79,10.69,13.59,11.48,1.7-3.61,1.5-12.16,1.42-14.38-.01-.29-.25-.51-.54-.5Z"/>
            </g>
            <path class="cls-8" d="m59.45,41.14s.89-1.25,1.94-1.32c0,0-1.29-.06-2.14,1.42l.2-.1Z"/>
            <g>
              <g>
                <path class="cls-20" d="m70.8,43.82c1.21,0,1.88-4.76,2.33-6.88s2.26-8.47,1.66-11.19-3.07-7.31-8.57-6.1c0,0-.35-6.12-7.31-7.79s-7.86-.68-12.63.6-10.89,1.59-10.96-.83c0,0-.59,2.85,2.42,5.35,0,0-5.54,1.55-5.99-3.23,0,0-.81,5.33,3.19,7.58,0,0-2.49.04-3.93-1.74,0,0,.76,3.69,4.35,5.35,0,0-.79.53-.79,3.52s.68,4.91,1.17,6.58.87,4.99.72,7.75c-.15,2.76,2.34,1.32,2.34,1.32,0,0-.15-3.59.53-5.67s1.29-4.16,1.47-6.84.42-7.11,6.35-6.8c5.93.3,10.43-.23,13.38-.6s5.22-.57,6.61,2.38c1.4,2.95.76,4.27,1.1,6.31s1.71,5.97,1.95,7.94.6,3,.6,3Z"/>
                <path class="cls-6" d="m65.49,19.65s-.28,2.85-5.87,3.62-9.42,1.17-15.32-.44c-5.9-1.61-9.83-4.54-9.83-4.54,0,0,3.33-.05,4.84-1.26,0,0-1.66-1.06-1.81-2.67,0,0,4.64.6,11.39-1.56s11.52.06,12.6,1.18,3.83,4.31,4.01,5.67Z"/>
                <path class="cls-4" d="m65.3,23.47s.6-.45,2.08-.23,2.57,1.51,3.33,2.23,1.87.57,2.43,0-.35-2.95-2.16-3.93-5.14-2.19-5.67,1.93Z"/>
                <path class="cls-4" d="m65.49,19.65s-2.19.53-5.41-2.27-5.84-5.07-8.22-5.3c0,0,6.37-1.28,9.62,1.89,3.25,3.18,4.01,5.67,4.01,5.67Z"/>
              </g>
              <g>
                <path class="cls-18" d="m70.8,43.82c-.02-1.46.14-3.38,2.33-3.48s2.34,2.8,2.19,4.16-.66,4.21-1.84,5.97-2.24,2.27-3.28,2.17c0,0,.35-3.1.43-4.99s.18-3.43.18-3.83Z"/>
                <path class="cls-1" d="m73.32,41.5c.56-.09.96,1.44.94,2.66s.11,2.93-.47,4.06-1.59,1.95-1.78,1.85.57-1.4.55-2.48-.59-3.01-.58-4.18.31-1.76,1.33-1.93Z"/>
              </g>
              <g>
                <path class="cls-18" d="m38.41,43.82c.02-1.46-.14-3.38-2.33-3.48s-2.34,2.8-2.19,4.16.66,4.21,1.84,5.97,2.24,2.27,3.28,2.17c0,0-.35-3.1-.43-4.99s-.18-3.43-.18-3.83Z"/>
                <path class="cls-15" d="m35.89,41.5c-.56-.09-.96,1.44-.94,2.66s-.11,2.93.47,4.06,1.59,1.95,1.78,1.85-.57-1.4-.55-2.48.59-3.01.58-4.18-.31-1.76-1.33-1.93Z"/>
              </g>
              <path class="cls-20" d="m71,40.78c-.04-2.42-.23-3.59-.23-3.59l-1.39.16s.66,6.19.55,8.66c-.1,2.47-.91,4.84-2.62,6.85s-4.49,4.89-4.49,4.89c0,0-.01.01-.02.02.02-.8-.27-1.46-.61-2.36-.58-1.54-2.97-1.89-4.56-2.24-1.59-.35-1.51-.83-2.04-.83s-.87.49-1.3.49-.37-.49-.96-.49-2.43.96-3.69,1.26c-1.26.3-3.2.58-3.75,2.42-.21.68-.16,1.46-.03,2.17-.24-.24-.48-.51-.72-.8-2.46-2.99-5.93-7.64-6.09-10.28s-.15-6.49-.15-6.49l-1.13.03s.23,2.69.3,5.16c.08,2.47.15,6.1,1.17,9.88,1.02,3.78,2.38,5.03,3.67,6.24,1.29,1.21,5.82,6.54,11.94,6.54s10.81-5.82,12.1-7.11c1.29-1.29,2.83-3.02,3.25-7.3.42-4.27.83-10.85.79-13.27Zm-16.48,17.35c-1.93,0-2.15,2.17-3.36,2.29-.55.06-1.34.05-2.26-.26-1.96-1.98-1.78-3.46-1.06-4.03.78-.6,3.33-.88,4.74-.96s1.56-.63,2.09-.63,1.08.48,3.88.93,2.47,1.13,2.22,2.65c-.25,1.51-2.22,2.29-2.22,2.29l.47-.07c-.16.04-.32.07-.47.07-1.71.05-2.1-2.29-4.03-2.29Z"/>
            </g>
            <g>
              <g>
                <path class="cls-21" d="m59.49,56.39s-2.29-.15-2.84-.25-.87-.36-1.46-.36-.34.09-.81.09-.17-.09-1.02-.09-4.06.49-4.06.49c0,0,4.5,1.01,10.19.12Z"/>
                <path class="cls-21" d="m59.67,56.4s-2.86,1.1-5.12,1.1c-3.33,0-5.39-1.26-5.39-1.26,0,0,5.32.96,10.51.16Z"/>
                <path class="cls-16" d="m59.67,56.4c-.86.22-1.74.32-2.62.41-.88.08-1.77.09-2.65.09-.88,0-1.77-.03-2.65-.12-.88-.1-1.76-.24-2.6-.54.87.13,1.75.21,2.62.28.87.07,1.75.11,2.63.11.88,0,1.75-.05,2.63-.08.88-.03,1.75-.09,2.63-.18v.03Z"/>
              </g>
              <g>
                <g>
                  <path class="cls-13" d="m44.47,41.61s-.28.29-.28.45,1.06,1.13,2.53,1.13,2.37-.94,2.66-1.54c0,0-.64-1.05-2.46-1.01s-2.46.96-2.46.96Z"/>
                  <path class="cls-20" d="m49.4,41.76s-.58-.97-2.44-.97-2.69,1.16-2.69,1.16l-.02-.09s.42-1.35,2.76-1.35c1.88,0,2.49,1.11,2.49,1.11l-.1.14Z"/>
                  <g>
                    <circle class="cls-20" cx="46.68" cy="41.76" r="1.12"/>
                    <circle class="cls-2" cx="46.68" cy="41.76" r=".95"/>
                    <circle class="cls-20" cx="46.68" cy="41.76" r=".68"/>
                    <circle class="cls-13" cx="46.18" cy="41.34" r=".22"/>
                  </g>
                </g>
                <g>
                  <path class="cls-13" d="m63.95,41.52s.28.29.28.45c0,.16-1.06,1.13-2.53,1.13s-2.37-.94-2.66-1.54c0,0,.64-1.05,2.46-1.01s2.46.96,2.46.96Z"/>
                  <path class="cls-20" d="m59.03,41.67s.58-.97,2.44-.97,2.69,1.16,2.69,1.16l.02-.09s-.42-1.35-2.76-1.35c-1.88,0-2.49,1.11-2.49,1.11l.1.14Z"/>
                  <g>
                    <circle class="cls-20" cx="61.43" cy="41.59" r="1.12"/>
                    <path class="cls-2" d="m61.43,40.64c.52,0,.95.42.95.95s-.42.95-.95.95-.95-.42-.95-.95.42-.95.95-.95Z"/>
                    <circle class="cls-20" cx="61.43" cy="41.59" r=".68"/>
                    <circle class="cls-13" cx="61.02" cy="41.09" r=".22"/>
                  </g>
                </g>
                <path class="cls-20" d="m50.88,38.45l.06-.28c.11-.51-.27-1-.79-1.02-1.08-.04-2.88-.08-4.59-.06-2.5.02-3.28.24-4.56,1.46-.09.09-.02.25.1.24.86-.08,3.01-.26,4.83-.16,2.05.11,3.53.14,4.49.18.22,0,.41-.14.46-.36Z"/>
                <path class="cls-20" d="m56.76,38.45l-.06-.28c-.11-.51.28-1,.83-1.02,1.14-.04,3.03-.08,4.82-.06,2.63.02,3.45.24,4.8,1.46.1.09.03.25-.11.24-.9-.08-3.16-.26-5.08-.16-2.16.11-3.71.14-4.72.18-.23,0-.43-.14-.48-.36Z"/>
                <g>
                  <g>
                    <path class="cls-8" d="m57.47,51.02c.25.15,0,.41-.69.42-.48,0-1.12.49-1.22.36s1.11-1.26,1.92-.78Z"/>
                    <path class="cls-8" d="m50.89,51.02c-.25.15,0,.41.69.42.48,0,1.12.49,1.22.36s-1.11-1.26-1.92-.78Z"/>
                  </g>
                  <g>
                    <path class="cls-11" d="m57.4,47.32s1.03,1.45.91,2.95c0,0,.53-1.75-.91-2.95Z"/>
                    <path class="cls-12" d="m48.76,39.82s-1.41-.42-3.2-.16-2.22.76-2.58.43,3.86-1.42,5.78-.28Z"/>
                    <path class="cls-11" d="m59.9,39.67s1.38-.53,3.18-.4,2.27.59,2.61.24-3.95-1.13-5.79.16Z"/>
                    <path class="cls-11" d="m53.31,35.12s.38,2.65-.78,3.23c0,0,1.66.08.78-3.23Z"/>
                  </g>
                </g>
              </g>
            </g>
            <g>
              <rect class="cls-20" x="38.11" y="38.94" width="2.46" height=".55"/>
              <rect class="cls-20" x="67.99" y="38.94" width="2.46" height=".55" transform="translate(138.43 78.43) rotate(-180)"/>
              <path class="cls-20" d="m68.4,39.15h0v-.1l-.06-.07c-.09-.1-.14-.13-.21-.19-.07-.05-.14-.09-.2-.13-.14-.08-.28-.14-.42-.2-.28-.11-.57-.19-.86-.25-.58-.12-1.16-.17-1.74-.18-1.15-.02-2.27,0-3.41.02-.57.01-1.14.03-1.71.06-.29.01-.57.03-.86.05-.28.02-.59.05-.88.11-.58.13-1.16.29-1.7.68-.13.1-.26.22-.37.37-.05.07-.08.14-.12.22h-3.2c-.03-.08-.07-.15-.12-.22-.11-.15-.24-.28-.37-.37-.54-.38-1.11-.55-1.7-.68-.29-.06-.6-.1-.88-.11-.29-.02-.57-.04-.86-.05-.57-.03-1.14-.05-1.71-.06-1.14-.02-2.27-.03-3.41-.02-.58.01-1.16.06-1.74.18-.29.06-.58.13-.86.25-.14.06-.28.12-.42.2-.07.04-.14.08-.2.13-.07.06-.12.09-.21.19l-.06.07v.1h0c0,.96-.05,1.9,0,2.89.06.98.25,1.96.64,2.88.19.46.45.9.75,1.31.32.39.68.75,1.1,1.04.42.28.89.49,1.38.61.25.07.5.09.76.1h.72c.48-.01.96-.01,1.44-.01.47,0,.97.02,1.47-.07.5-.09.98-.27,1.42-.54.44-.27.82-.62,1.14-1.01.32-.39.6-.82.81-1.27.21-.45.37-.92.51-1.4.18-.67.31-1.33.39-2.02.02-.2.19-.35.39-.35h2.41c.2,0,.36.15.39.35.08.68.21,1.35.39,2.02.13.47.3.94.51,1.4.21.46.49.88.81,1.27.32.39.71.74,1.14,1.01.44.27.92.45,1.42.54.5.09,1,.07,1.47.07.48,0,.96,0,1.44,0h.72c.26,0,.52-.03.76-.1.49-.12.96-.33,1.38-.61.42-.28.79-.64,1.1-1.04.3-.41.56-.84.75-1.31.39-.92.57-1.91.64-2.88.05-.99,0-1.93,0-2.89Zm-16.3,1.61c-.11,1.83-.6,3.73-1.62,5.21-.52.73-1.27,1.3-2.16,1.49-.44.1-.9.1-1.39.1-.48,0-.96,0-1.44,0h-.71c-.22-.02-.44-.05-.65-.12-.43-.12-.83-.34-1.2-.61-.36-.28-.67-.6-.94-.96-.26-.37-.5-.76-.67-1.18-.35-.84-.52-1.77-.6-2.69l-.03-.7c0-.23,0-.48-.01-.71l-.02-1.32s.03-.03.05-.04c.05-.03.1-.07.16-.1.11-.06.23-.11.35-.16.25-.09.51-.16.77-.21.53-.1,1.09-.14,1.64-.15,1.12,0,2.26.02,3.39.05.56.02,1.13.04,1.69.07.56.04,1.13.06,1.64.17.52.11,1.05.29,1.44.58.2.14.3.31.3.45v.84Zm15.75-.17c0,.24,0,.48-.01.71l-.03.7c-.08.93-.25,1.85-.6,2.69-.17.43-.41.81-.67,1.18-.28.36-.59.68-.94.96-.36.27-.76.48-1.2.61-.21.07-.44.1-.65.11h-.71c-.48.02-.96.02-1.44.02-.49,0-.95,0-1.39-.1-.89-.19-1.64-.76-2.16-1.49-1.02-1.48-1.5-3.39-1.62-5.21v-.84c0-.14.11-.31.3-.45.38-.29.92-.46,1.44-.58.52-.11,1.08-.13,1.64-.17.56-.03,1.13-.06,1.69-.07,1.13-.03,2.27-.05,3.39-.05.55,0,1.11.05,1.64.15.27.05.53.12.77.21.12.05.24.1.35.16.05.03.11.06.16.1.02.01.03.02.05.04l-.02,1.32Z"/>
            </g>
          </g>
        </g>
      </g>
    </g>
  </g>
</svg>