<?xml version="1.0" encoding="UTF-8"?>
<svg id="Layer_2" data-name="Layer 2" xmlns="http://www.w3.org/2000/svg" viewBox="0 0 616.4 348.69">
  <defs>
    <style>
      .cls-1 {
        fill: #bbbdbf;
      }

      .cls-1, .cls-2, .cls-3, .cls-4, .cls-5, .cls-6 {
        stroke-width: 0px;
      }

      .cls-2 {
        fill: #f05a28;
      }

      .cls-7 {
        stroke-width: 2px;
      }

      .cls-7, .cls-8 {
        stroke: #f2f2f2;
      }

      .cls-7, .cls-8, .cls-9, .cls-10 {
        fill: none;
      }

      .cls-7, .cls-8, .cls-9, .cls-10, .cls-11 {
        stroke-miterlimit: 10;
      }

      .cls-8 {
        stroke-width: .1px;
      }

      .cls-9 {
        stroke: #662d91;
        stroke-width: 1.5px;
      }

      .cls-4 {
        fill: #662d91;
        opacity: .5;
      }

      .cls-5 {
        fill: #fff;
      }

      .cls-10 {
        stroke: #b3b3b3;
        stroke-width: .5px;
      }

      .cls-11 {
        fill: #f15a24;
        stroke: #f15a24;
      }

      .cls-6 {
        opacity: .38;
      }
    </style>
  </defs>
  <g id="Layer_1-2" data-name="Layer 1">
    <g>
      <path class="cls-5" d="m.5,253.32v-1.71l7.42-1.48c.77-.14,1.91-.31,2.88-.41-.97-.13-2.09-.32-2.88-.5l-4.54-1.03c-1.19-.27-2.02-.88-2.02-2.11s.83-1.82,2.02-2.09l4.54-1.04c.79-.18,1.93-.38,2.93-.5-1.01-.13-2.14-.25-2.93-.41l-7.42-1.48v-1.71l12.57,2.57v1.96l-9.45,2.16c-.49.11-.68.23-.68.54,0,.32.2.43.68.54l9.45,2.18v1.94l-12.57,2.58Z"/>
      <path class="cls-5" d="m7.67,237.68c-2.5,0-4.11-1.44-4.11-3.87s1.6-3.89,4.11-3.89h1.53c2.52,0,4.1,1.46,4.1,3.89s-1.58,3.87-4.1,3.87h-1.53Zm1.39-1.67c1.75,0,2.81-.58,2.81-2.2s-1.06-2.2-2.81-2.2h-1.24c-1.71,0-2.81.56-2.81,2.2s1.1,2.2,2.81,2.2h1.24Z"/>
      <path class="cls-5" d="m3.8,227.47v-1.33l1.28-.16c-.79-.56-1.5-1.5-1.5-2.41,0-.29.04-.59.11-.88l1.4.23c-.05.22-.07.47-.07.7,0,.77.81,1.67,1.51,2.2h6.54v1.66H3.8Z"/>
      <path class="cls-5" d="m0,220.87v-1.66h7.54l-.41-1.53c-.13-.43-.43-.65-.74-.77l-2.59-1.06v-1.75l3.21,1.35c.52.22.97.56,1.22,1.1l4.84-2.77v1.85l-4.34,2.39.31,1.19h3.64c.25,0,.4.16.4.4v1.26H0Z"/>
      <path class="cls-5" d="m0,211.96v-1.66h11.16c.56,0,.7-.16.76-.54l1.35.32c-.11,1.04-.47,1.87-1.93,1.87H0Z"/>
      <path class="cls-5" d="m7.67,207.82c-2.5,0-4.11-1.44-4.11-3.87s1.6-3.89,4.11-3.89h1.53c2.52,0,4.1,1.46,4.1,3.89s-1.58,3.87-4.1,3.87h-1.53Zm1.39-1.67c1.75,0,2.81-.58,2.81-2.2s-1.06-2.2-2.81-2.2h-1.24c-1.71,0-2.81.56-2.81,2.2s1.1,2.2,2.81,2.2h1.24Z"/>
      <path class="cls-5" d="m12.17,192.53c.7.7,1.13,1.58,1.13,2.65,0,1.85-1.12,2.99-2.81,2.99-2,0-2.75-1.69-2.75-4.05v-1.39h-.65c-1.39,0-2.09.49-2.09,1.94,0,.92.16,1.62.43,2.5l-1.35.38c-.32-1.01-.52-1.87-.52-2.88,0-2.43,1.39-3.6,3.33-3.6h6.18v1.33l-.9.13Zm-3.17.2v1.26c0,1.46.31,2.5,1.48,2.5.85,0,1.39-.5,1.39-1.57,0-.79-.38-1.6-.95-2.2h-1.91Z"/>
      <path class="cls-5" d="m7.33,188.72c-2.38,0-3.76-1.28-3.76-3.37,0-.88.36-1.64,1.01-2.47H0v-1.66h13.07v1.39l-.9.11c.74.88,1.13,1.67,1.13,2.63,0,2.09-1.4,3.37-3.75,3.37h-2.23Zm1.94-1.67c1.75,0,2.59-.58,2.59-1.95,0-.81-.49-1.55-1.01-2.21h-4.81c-.56.68-1.04,1.4-1.04,2.21,0,1.37.85,1.95,2.59,1.95h1.67Z"/>
    </g>
    <g>
      <path class="cls-1" d="m444.05,340.15c.01-.18.14-.28.31-.28h.47c.17,0,.3.08.35.26l1.73,6.08c.13.49.25.67.52.67s.38-.18.52-.67l1.71-6.07c.06-.18.19-.28.36-.28h.47c.17,0,.29.11.31.28l1.09,7.82c.02.17-.07.28-.24.28h-.28c-.17,0-.29-.11-.3-.26l-.78-5.58c-.05-.38-.11-.95-.14-1.4-.1.46-.24,1.02-.35,1.4l-1.08,3.95c-.21.8-.56,1.3-1.29,1.3s-1.08-.49-1.29-1.3l-1.09-3.97c-.1-.37-.25-.96-.35-1.4-.04.48-.08,1.09-.14,1.49l-.77,5.5c-.02.17-.14.28-.31.28h-.26c-.17,0-.26-.11-.25-.28l1.1-7.82Z"/>
      <path class="cls-1" d="m455.82,344.84h1.13v-.59c0-1.04-.38-1.57-1.48-1.57-.59,0-1.1.12-1.4.2-.16.05-.29-.01-.34-.19l-.04-.16c-.06-.19.02-.3.19-.35.36-.11.94-.24,1.58-.24,1.56,0,2.29.89,2.29,2.15v3.87c0,.17-.08.28-.25.28h-.13c-.17,0-.26-.07-.29-.24l-.06-.38c-.5.46-1.15.78-1.88.78-1.22,0-1.96-.73-1.96-1.79,0-1.27,1.07-1.78,2.63-1.78Zm-.59,2.83c.62,0,1.25-.29,1.71-.73v-1.43h-1.08c-1.1,0-1.83.25-1.83,1.1,0,.62.38,1.05,1.2,1.05Z"/>
      <path class="cls-1" d="m459.78,342.38c0-.17.1-.28.26-.28h.14c.17,0,.25.11.28.26l.07.64c.38-.55,1.03-1.06,1.67-1.06.24,0,.53.02.5.38-.04.41-.26.35-.55.35-.52,0-1.16.58-1.56,1.13v4.16c0,.17-.11.28-.28.28h-.25c-.17,0-.29-.11-.29-.28v-5.59Z"/>
    </g>
    <g>
      <path class="cls-1" d="m491.71,339.08c.21-.8.74-1.32,1.46-1.32s1.26.53,1.48,1.33l1.8,6.91c.05.18-.04.29-.22.29h-.26c-.17,0-.29-.1-.34-.28l-.58-2.21h-3.77l-.56,2.21c-.05.19-.17.28-.34.28h-.26c-.18,0-.28-.12-.23-.3l1.81-6.91Zm3.15,4.01l-1-3.86c-.13-.49-.38-.7-.7-.7s-.56.17-.7.68l-1,3.87h3.38Z"/>
      <path class="cls-1" d="m498.92,348.42c0,.17-.11.28-.28.28h-.25c-.17,0-.29-.11-.29-.28v-8c0-.17.1-.28.26-.28h.13c.17,0,.28.08.29.24l.06.41c.61-.5,1.19-.8,1.86-.8,1.39,0,2.23.91,2.23,2.45v1.56c0,1.52-.84,2.45-2.23,2.45-.64,0-1.19-.3-1.79-.73v2.71Zm1.68-2.71c1.05,0,1.51-.63,1.51-1.91v-1.18c0-1.27-.46-1.91-1.51-1.91-.61,0-1.19.4-1.68.78v3.45c.56.41,1.05.75,1.68.75Z"/>
      <path class="cls-1" d="m504.74,340.42c0-.17.1-.28.26-.28h.14c.17,0,.25.11.28.26l.07.64c.38-.55,1.03-1.06,1.67-1.06.24,0,.53.02.5.38-.04.41-.26.35-.55.35-.52,0-1.16.58-1.56,1.13v4.16c0,.17-.11.28-.28.28h-.25c-.17,0-.29-.11-.29-.28v-5.59Z"/>
    </g>
    <g>
      <path class="cls-1" d="m538.57,338.19c.01-.18.14-.28.31-.28h.47c.17,0,.3.08.35.26l1.73,6.08c.13.49.25.67.52.67s.38-.18.52-.67l1.72-6.07c.06-.18.19-.28.36-.28h.47c.17,0,.29.11.31.28l1.09,7.82c.02.17-.07.28-.24.28h-.28c-.17,0-.29-.11-.3-.26l-.78-5.58c-.05-.38-.11-.95-.14-1.4-.1.46-.24,1.02-.35,1.4l-1.08,3.95c-.22.8-.56,1.29-1.3,1.29s-1.08-.49-1.29-1.29l-1.09-3.97c-.1-.37-.25-.96-.35-1.4-.04.48-.08,1.09-.14,1.49l-.77,5.51c-.03.17-.14.28-.31.28h-.26c-.17,0-.26-.11-.25-.28l1.1-7.82Z"/>
      <path class="cls-1" d="m550.34,342.88h1.13v-.59c0-1.04-.38-1.57-1.47-1.57-.59,0-1.1.12-1.4.2-.16.05-.29-.01-.34-.19l-.04-.16c-.06-.19.02-.3.19-.35.36-.11.94-.24,1.58-.24,1.56,0,2.29.89,2.29,2.15v3.88c0,.17-.08.28-.25.28h-.13c-.17,0-.26-.07-.29-.24l-.06-.38c-.5.46-1.15.78-1.88.78-1.22,0-1.96-.73-1.96-1.79,0-1.27,1.07-1.78,2.63-1.78Zm-.59,2.83c.62,0,1.25-.29,1.71-.73v-1.43h-1.08c-1.1,0-1.83.25-1.83,1.1,0,.62.38,1.05,1.2,1.05Z"/>
      <path class="cls-1" d="m553.84,340.44c-.01-.17.08-.3.25-.3h.25c.17,0,.29.11.31.28l.49,3.78c.1.74.39,1.34,1.19,1.34.44,0,.84-.14,1.26-.36l.25-4.75c.03-.23.14-.29.31-.29h.23c.17,0,.29.08.26.29l-.34,6.36c-.06,1.18-.65,1.91-1.98,1.91h-.84c-.17,0-.29-.07-.3-.25l-.02-.21c-.01-.18.08-.26.25-.26h.94c.85,0,1.1-.48,1.15-1.22l.06-.78c-.43.2-.84.32-1.27.32-1.21,0-1.8-.77-1.96-1.99l-.5-3.85Z"/>
    </g>
    <g>
      <path class="cls-1" d="m585.54,347.69c.05-.18.18-.24.35-.19.28.08.68.16,1.13.16,1.42,0,1.74-.9,1.74-2.08v-5.43c0-.17.11-.28.28-.28h.28c.17,0,.29.11.29.28v5.55c0,1.54-.7,2.7-2.59,2.7-.54,0-1.01-.08-1.31-.18-.16-.05-.24-.18-.19-.36l.04-.17Z"/>
      <path class="cls-1" d="m591.68,342.38c0-.17.12-.28.29-.28h.25c.17,0,.28.11.28.28v3.75c0,1,.31,1.54,1.33,1.54.61,0,1.14-.32,1.7-.77v-4.52c0-.17.11-.28.28-.28h.26c.17,0,.28.11.28.28v5.59c0,.17-.1.28-.26.28h-.12c-.18,0-.28-.06-.3-.23l-.05-.42c-.61.49-1.24.8-1.89.8-1.36,0-2.04-.83-2.04-2.07v-3.95Z"/>
      <path class="cls-1" d="m598.41,342.38c0-.17.1-.28.26-.28h.13c.17,0,.26.08.29.25l.06.4c.61-.49,1.22-.8,1.89-.8,1.36,0,2.03.83,2.03,2.06v3.96c0,.17-.11.28-.28.28h-.26c-.17,0-.28-.11-.28-.28v-3.75c0-.98-.31-1.54-1.32-1.54-.62,0-1.14.34-1.71.77v4.52c0,.17-.11.28-.28.28h-.25c-.17,0-.29-.11-.29-.28v-5.59Z"/>
    </g>
    <g>
      <path class="cls-1" d="m251.78,340.15c0-.17.11-.28.28-.28h.26c.17,0,.3.1.41.26l3.89,6.63c-.02-.52-.05-1.06-.05-1.46v-5.16c0-.17.11-.28.28-.28h.28c.17,0,.28.11.28.28v7.82c0,.17-.11.28-.28.28h-.26c-.17,0-.31-.11-.42-.29l-3.87-6.6c.02.5.05,1.06.05,1.45v5.16c0,.17-.11.28-.28.28h-.28c-.17,0-.28-.11-.28-.28v-7.82Z"/>
      <path class="cls-1" d="m259.34,344.62c0-1.66.94-2.67,2.51-2.67s2.49,1.02,2.49,2.67v1.09c0,1.67-.94,2.69-2.49,2.69s-2.51-1.02-2.51-2.69v-1.09Zm2.51,3.05c1.21,0,1.67-.8,1.67-2.05v-.91c0-1.22-.47-2.03-1.67-2.03s-1.68.8-1.68,2.03v.91c0,1.25.46,2.05,1.68,2.05Z"/>
      <path class="cls-1" d="m265.46,342.42c-.06-.18.02-.31.19-.31h.29c.17,0,.26.07.34.26l1.24,3.56c.14.43.32,1.1.46,1.6.12-.49.31-1.15.47-1.6l1.24-3.56c.06-.19.17-.26.34-.26h.29c.17,0,.25.13.19.31l-1.93,5.54c-.06.17-.19.29-.37.29h-.43c-.17,0-.3-.1-.36-.29l-1.93-5.54Z"/>
    </g>
    <g>
      <path class="cls-2" d="m299.63,340.15c0-.17.11-.28.28-.28h2.54c2.03,0,3,.94,3,2.96v2.46c0,2.01-.97,2.95-3,2.95h-2.54c-.17,0-.28-.11-.28-.28v-7.82Zm2.81,7.35c1.75,0,2.16-.92,2.16-2.36v-2.17c0-1.43-.41-2.35-2.16-2.35h-1.98v6.88h1.98Z"/>
      <path class="cls-2" d="m307.06,344.41c0-1.3.89-2.46,2.4-2.46s2.4,1.21,2.4,2.46v.67c0,.13-.11.24-.23.24h-3.75v.64c0,.76.4,1.71,1.66,1.71.62,0,1.16-.13,1.57-.24.18-.05.32-.01.36.16l.05.2c.05.16-.04.28-.22.34-.42.12-1.07.28-1.76.28-1.62,0-2.47-1.19-2.47-2.45v-1.55Zm3.98.26v-.3c0-.78-.43-1.69-1.58-1.69s-1.58.9-1.58,1.69v.3h3.17Z"/>
      <path class="cls-2" d="m313.33,344.65c0-1.63.86-2.7,2.45-2.7.64,0,1.18.11,1.58.22.19.06.29.17.24.36l-.05.17c-.05.18-.19.23-.38.18-.32-.1-.83-.19-1.37-.19-1.24,0-1.64.85-1.64,2.05v.85c0,1.22.41,2.09,1.64,2.09.58,0,1.04-.11,1.39-.2.2-.06.31.02.36.17l.05.18c.05.18-.04.31-.23.36-.42.11-.96.23-1.6.23-1.58,0-2.45-1.09-2.45-2.72v-1.03Z"/>
    </g>
    <g>
      <path class="cls-2" d="m347.5,347.69c.05-.18.18-.24.35-.19.28.08.68.16,1.13.16,1.42,0,1.74-.9,1.74-2.08v-5.43c0-.17.11-.28.28-.28h.28c.17,0,.29.11.29.28v5.55c0,1.54-.7,2.7-2.59,2.7-.54,0-1.01-.08-1.31-.18-.16-.05-.24-.18-.19-.36l.04-.17Z"/>
      <path class="cls-2" d="m355.89,344.84h1.13v-.59c0-1.04-.38-1.57-1.48-1.57-.59,0-1.1.12-1.4.2-.16.05-.29-.01-.34-.19l-.04-.16c-.06-.19.02-.3.19-.35.36-.11.94-.24,1.58-.24,1.56,0,2.29.89,2.29,2.15v3.87c0,.17-.08.28-.25.28h-.13c-.17,0-.26-.07-.29-.24l-.06-.38c-.5.46-1.15.78-1.88.78-1.22,0-1.96-.73-1.96-1.79,0-1.27,1.07-1.78,2.63-1.78Zm-.59,2.83c.62,0,1.25-.29,1.71-.73v-1.43h-1.08c-1.1,0-1.83.25-1.83,1.1,0,.62.38,1.05,1.2,1.05Z"/>
      <path class="cls-2" d="m359.85,342.38c0-.17.1-.28.26-.28h.13c.17,0,.26.08.29.25l.06.4c.61-.49,1.22-.8,1.89-.8,1.36,0,2.03.83,2.03,2.06v3.96c0,.17-.11.28-.28.28h-.26c-.17,0-.28-.11-.28-.28v-3.75c0-.98-.31-1.54-1.32-1.54-.62,0-1.14.34-1.72.77v4.52c0,.17-.11.28-.28.28h-.25c-.17,0-.29-.11-.29-.28v-5.59Z"/>
    </g>
    <g>
      <path class="cls-1" d="m395.32,340.15c0-.17.11-.28.28-.28h3.91c.17,0,.28.11.28.28v.19c0,.17-.11.28-.28.28h-3.36v3.09h2.99c.17,0,.29.11.29.28v.19c0,.17-.12.28-.29.28h-2.99v3.51c0,.17-.11.28-.28.28h-.28c-.17,0-.28-.11-.28-.28v-7.82Z"/>
      <path class="cls-1" d="m401.02,344.41c0-1.3.89-2.46,2.4-2.46s2.4,1.21,2.4,2.46v.67c0,.13-.11.24-.23.24h-3.75v.64c0,.76.4,1.71,1.66,1.71.62,0,1.16-.13,1.57-.24.18-.05.32-.01.36.16l.05.2c.05.16-.04.28-.22.34-.42.12-1.07.28-1.76.28-1.62,0-2.47-1.19-2.47-2.45v-1.55Zm3.98.26v-.3c0-.78-.43-1.69-1.58-1.69s-1.58.9-1.58,1.69v.3h3.17Z"/>
      <path class="cls-1" d="m407.55,339.81c0-.17.12-.28.29-.28h.25c.17,0,.28.11.28.28v2.84c.6-.46,1.15-.71,1.79-.71,1.39,0,2.23.91,2.23,2.45v1.56c0,1.52-.84,2.45-2.23,2.45-.67,0-1.24-.28-1.86-.77l-.06.38c-.01.16-.11.23-.28.23h-.16c-.17,0-.25-.11-.25-.28v-8.16Zm2.5,7.86c1.07,0,1.51-.62,1.51-1.91v-1.18c0-1.28-.44-1.91-1.51-1.91-.61,0-1.12.34-1.68.74v3.51c.49.37,1.07.73,1.68.73Z"/>
    </g>
    <g>
      <path class="cls-1" d="m61.82,347.69c.05-.18.18-.24.35-.19.28.08.68.16,1.13.16,1.42,0,1.74-.9,1.74-2.08v-5.43c0-.17.11-.28.28-.28h.28c.17,0,.29.11.29.28v5.55c0,1.54-.7,2.7-2.59,2.7-.54,0-1.01-.08-1.31-.18-.16-.05-.24-.18-.19-.36l.04-.17Z"/>
      <path class="cls-1" d="m67.96,342.38c0-.17.12-.28.29-.28h.25c.17,0,.28.11.28.28v3.75c0,1,.31,1.54,1.33,1.54.61,0,1.14-.32,1.7-.77v-4.52c0-.17.11-.28.28-.28h.26c.17,0,.28.11.28.28v5.59c0,.17-.1.28-.26.28h-.12c-.18,0-.28-.06-.3-.23l-.05-.42c-.61.49-1.24.8-1.9.8-1.35,0-2.04-.83-2.04-2.07v-3.95Z"/>
      <path class="cls-1" d="m74.71,339.81c0-.17.11-.28.28-.28h.25c.17,0,.29.11.29.28v7.36c0,.34.1.41.17.46.11.06.16.17.12.31l-.05.19c-.02.14-.11.25-.31.22-.3-.06-.74-.22-.74-1.09v-7.45Z"/>
    </g>
    <g>
      <path class="cls-1" d="m111.04,339.08c.2-.8.74-1.32,1.46-1.32s1.26.53,1.48,1.33l1.8,6.91c.05.18-.04.29-.22.29h-.26c-.17,0-.29-.1-.34-.28l-.58-2.21h-3.77l-.56,2.21c-.05.19-.17.28-.34.28h-.26c-.18,0-.28-.12-.23-.3l1.81-6.91Zm3.15,4.01l-1-3.86c-.13-.49-.38-.7-.7-.7s-.56.17-.7.68l-1,3.87h3.38Z"/>
      <path class="cls-1" d="m117.38,340.42c0-.17.12-.28.29-.28h.25c.17,0,.28.11.28.28v3.75c0,1,.31,1.54,1.33,1.54.61,0,1.14-.32,1.7-.77v-4.52c0-.17.11-.28.28-.28h.26c.17,0,.28.11.28.28v5.59c0,.17-.1.28-.26.28h-.12c-.18,0-.28-.06-.3-.23l-.05-.42c-.61.49-1.24.8-1.89.8-1.36,0-2.04-.83-2.04-2.08v-3.95Z"/>
      <path class="cls-1" d="m123.84,342.43c0-1.54.84-2.45,2.23-2.45.66,0,1.24.3,1.86.8l.06-.42c.01-.14.11-.23.28-.23h.16c.17,0,.24.11.24.28v6.34c0,1.2-.68,1.93-1.97,1.93h-1.32c-.17,0-.28-.08-.31-.24l-.04-.19c-.04-.2.07-.29.24-.29h1.43c.76,0,1.15-.49,1.15-1.2v-1.18c-.59.46-1.13.68-1.78.68-1.38,0-2.23-.91-2.23-2.45v-1.4Zm2.33,3.12c.62,0,1.13-.3,1.68-.7v-3.36c-.48-.38-1.07-.78-1.68-.78-1.04,0-1.5.62-1.5,1.91v1.02c0,1.28.46,1.91,1.5,1.91Z"/>
    </g>
    <g>
      <path class="cls-1" d="m157.21,345.56c.04-.18.18-.24.35-.19.47.13,1.1.32,1.81.32,1.24,0,1.78-.63,1.78-1.57,0-2.06-3.91-1.52-3.91-4.15,0-1.4,1.03-2.22,2.54-2.22.66,0,1.25.17,1.64.31.18.06.26.18.2.37l-.05.17c-.06.17-.2.22-.37.16-.35-.11-.85-.26-1.43-.26-1.09,0-1.67.54-1.67,1.47,0,1.86,3.91,1.46,3.91,4.15,0,1.4-1,2.31-2.65,2.31-.78,0-1.45-.18-1.97-.32-.18-.05-.26-.17-.23-.36l.04-.19Z"/>
      <path class="cls-1" d="m163.49,342.45c0-1.29.89-2.46,2.4-2.46s2.4,1.21,2.4,2.46v.67c0,.13-.11.24-.23.24h-3.75v.64c0,.75.4,1.71,1.66,1.71.62,0,1.16-.13,1.57-.24.18-.05.32-.01.36.16l.05.2c.05.16-.04.28-.22.34-.42.12-1.07.28-1.76.28-1.62,0-2.47-1.19-2.47-2.45v-1.55Zm3.98.26v-.3c0-.78-.43-1.69-1.58-1.69s-1.58.9-1.58,1.69v.3h3.17Z"/>
      <path class="cls-1" d="m170.85,348.42c0,.17-.11.28-.28.28h-.25c-.17,0-.29-.11-.29-.28v-8c0-.17.1-.28.26-.28h.13c.17,0,.28.08.29.24l.06.41c.61-.5,1.19-.8,1.86-.8,1.39,0,2.23.91,2.23,2.45v1.56c0,1.52-.84,2.45-2.23,2.45-.64,0-1.19-.3-1.79-.73v2.71Zm1.68-2.71c1.05,0,1.51-.64,1.51-1.91v-1.18c0-1.27-.46-1.91-1.51-1.91-.61,0-1.19.4-1.68.78v3.46c.56.41,1.06.75,1.68.75Z"/>
    </g>
    <g>
      <path class="cls-1" d="m205.08,343.1c0-2.03,1.18-3.38,3.13-3.38s3.13,1.36,3.13,3.38v1.91c0,2.07-1.17,3.39-3.13,3.39s-3.13-1.32-3.13-3.39v-1.91Zm3.13,4.56c1.73,0,2.27-1.29,2.27-2.77v-1.66c0-1.46-.54-2.77-2.27-2.77s-2.27,1.31-2.27,2.77v1.66c0,1.48.54,2.77,2.27,2.77Z"/>
      <path class="cls-1" d="m212.95,344.65c0-1.63.86-2.7,2.45-2.7.64,0,1.18.11,1.58.22.19.06.29.17.24.36l-.05.17c-.05.18-.19.23-.38.18-.32-.1-.83-.19-1.37-.19-1.24,0-1.64.85-1.64,2.05v.85c0,1.22.41,2.09,1.64,2.09.58,0,1.04-.11,1.39-.2.2-.06.31.02.36.17l.05.18c.05.18-.04.31-.23.36-.42.11-.96.23-1.6.23-1.58,0-2.45-1.09-2.45-2.72v-1.03Z"/>
      <path class="cls-1" d="m219.11,342.75l-.74-.05c-.18-.02-.26-.1-.26-.26v-.08c0-.17.11-.25.28-.25h.73v-1.74c0-.17.11-.28.28-.28h.25c.17,0,.29.11.29.28v1.74h1.22c.17,0,.29.1.29.26v.12c0,.17-.12.26-.29.26h-1.22v3.74c0,.89.44,1.17,1.01,1.17.23,0,.43-.02.54-.05.17-.02.29.04.31.19l.04.2c.04.16-.04.29-.2.32-.18.04-.43.06-.71.06-1.08,0-1.8-.66-1.8-1.8v-3.85Z"/>
    </g>
    <rect class="cls-6" x="48.2" y="272.05" width="42.1" height="45.2"/>
    <rect class="cls-6" x="144.08" y="182.05" width="42.1" height="135.2"/>
    <rect class="cls-6" x="192.02" y="137.05" width="42.1" height="180.2"/>
    <rect class="cls-6" x="382.79" y="272.05" width="42.1" height="45.2"/>
    <rect class="cls-6" x="477.67" y="272.05" width="42.1" height="45.2"/>
    <rect class="cls-6" x="525.62" y="137.05" width="42.1" height="180.2"/>
    <rect class="cls-6" x="573.56" y="227.05" width="42.1" height="90.2"/>
    <g>
      <path class="cls-5" d="m228.45,76.28c0-.2.13-.32.32-.32h2.31c2.07,0,3.18,1.39,3.18,3.03s-1.11,3-3.18,3h-1.67v3.43c0,.2-.13.32-.32.32h-.32c-.2,0-.32-.13-.32-.32v-9.13Zm2.61,4.83c1.6,0,2.2-1.11,2.2-2.13s-.6-2.14-2.2-2.14h-1.64v4.27h1.64Z"/>
      <path class="cls-5" d="m236.22,75.88c0-.2.13-.32.32-.32h.29c.2,0,.34.13.34.32v8.6c0,.39.11.48.2.53.13.07.18.2.14.36l-.06.22c-.03.17-.13.29-.36.25-.35-.07-.87-.25-.87-1.27v-8.7Z"/>
      <path class="cls-5" d="m242.16,81.75h1.32v-.69c0-1.22-.45-1.83-1.72-1.83-.69,0-1.29.14-1.64.24-.18.06-.34-.01-.39-.22l-.04-.18c-.07-.22.03-.35.22-.41.42-.13,1.09-.28,1.85-.28,1.82,0,2.67,1.04,2.67,2.51v4.52c0,.2-.1.32-.29.32h-.15c-.2,0-.31-.08-.34-.28l-.07-.45c-.59.53-1.34.91-2.2.91-1.43,0-2.28-.85-2.28-2.09,0-1.48,1.25-2.07,3.07-2.07Zm-.69,3.31c.73,0,1.46-.34,2-.85v-1.67h-1.26c-1.29,0-2.14.29-2.14,1.29,0,.73.45,1.23,1.4,1.23Z"/>
      <path class="cls-5" d="m246.78,78.88c0-.2.11-.32.31-.32h.15c.2,0,.31.1.34.29l.07.46c.71-.57,1.43-.94,2.21-.94,1.58,0,2.37.97,2.37,2.41v4.62c0,.2-.13.32-.32.32h-.31c-.2,0-.32-.13-.32-.32v-4.38c0-1.15-.37-1.79-1.54-1.79-.73,0-1.33.39-2,.9v5.28c0,.2-.12.32-.32.32h-.29c-.2,0-.34-.13-.34-.32v-6.53Z"/>
      <path class="cls-5" d="m254.56,78.88c0-.2.11-.32.31-.32h.15c.2,0,.31.1.34.29l.07.46c.71-.57,1.43-.94,2.21-.94,1.58,0,2.37.97,2.37,2.41v4.62c0,.2-.13.32-.32.32h-.31c-.2,0-.32-.13-.32-.32v-4.38c0-1.15-.36-1.79-1.54-1.79-.73,0-1.33.39-2,.9v5.28c0,.2-.13.32-.32.32h-.29c-.2,0-.34-.13-.34-.32v-6.53Z"/>
      <path class="cls-5" d="m262.04,81.25c0-1.51,1.04-2.87,2.8-2.87s2.8,1.42,2.8,2.87v.78c0,.15-.12.28-.27.28h-4.38v.74c0,.88.46,2,1.93,2,.73,0,1.36-.15,1.83-.28.21-.06.38-.01.42.18l.06.24c.06.18-.04.32-.25.39-.49.14-1.25.32-2.06.32-1.89,0-2.89-1.39-2.89-2.86v-1.81Zm4.65.31v-.35c0-.91-.5-1.98-1.85-1.98s-1.85,1.05-1.85,1.98v.35h3.7Z"/>
      <path class="cls-5" d="m269.36,81.23c0-1.79.98-2.86,2.61-2.86.74,0,1.37.32,2.07.85v-3.35c0-.2.14-.32.34-.32h.29c.2,0,.32.13.32.32v9.53c0,.2-.1.32-.29.32h-.17c-.2,0-.31-.07-.32-.27l-.07-.48c-.73.57-1.4.92-2.17.92-1.62,0-2.61-1.08-2.61-2.86v-1.82Zm2.72,3.82c.73,0,1.4-.45,1.96-.88v-4.03c-.62-.49-1.26-.91-1.96-.91-1.22,0-1.75.73-1.75,2.23v1.37c0,1.48.53,2.23,1.75,2.23Z"/>
      <path class="cls-5" d="m228.17,92.38c0-1.46.87-2.42,2.72-2.42h2.2c.2,0,.32.13.32.32v.22c0,.2-.13.32-.32.32h-2.2c-1.36,0-1.74.64-1.74,1.58v1.88h3.52c.2,0,.32.13.32.32v.22c0,.2-.13.32-.32.32h-3.52v2.13c0,.95.38,1.58,1.74,1.58h2.25c.2,0,.32.13.32.32v.22c0,.2-.13.32-.32.32h-2.25c-1.84,0-2.72-.97-2.72-2.41v-4.95Z"/>
      <path class="cls-5" d="m235.52,92.88c0-.2.11-.32.31-.32h.15c.2,0,.31.1.34.29l.07.46c.71-.57,1.43-.94,2.21-.94,1.58,0,2.37.97,2.37,2.41v4.62c0,.2-.13.32-.32.32h-.31c-.2,0-.32-.13-.32-.32v-4.38c0-1.15-.37-1.79-1.54-1.79-.73,0-1.33.39-2,.9v5.28c0,.2-.12.32-.32.32h-.29c-.2,0-.34-.13-.34-.32v-6.53Z"/>
      <path class="cls-5" d="m243.47,93.32l-.87-.06c-.21-.03-.31-.11-.31-.31v-.1c0-.2.12-.29.32-.29h.85v-2.03c0-.2.13-.32.32-.32h.29c.2,0,.34.13.34.32v2.03h1.43c.2,0,.34.11.34.31v.14c0,.2-.14.31-.34.31h-1.43v4.37c0,1.04.52,1.37,1.18,1.37.27,0,.5-.03.63-.06.2-.03.34.04.36.22l.04.24c.04.18-.04.34-.24.38-.21.04-.5.07-.83.07-1.26,0-2.1-.77-2.1-2.1v-4.5Z"/>
      <path class="cls-5" d="m247.88,95.25c0-1.51,1.04-2.87,2.8-2.87s2.8,1.42,2.8,2.87v.78c0,.15-.13.28-.27.28h-4.38v.74c0,.88.46,2,1.93,2,.73,0,1.36-.15,1.83-.28.21-.06.38-.01.42.18l.06.24c.06.18-.04.32-.25.39-.49.14-1.25.32-2.06.32-1.89,0-2.89-1.39-2.89-2.86v-1.81Zm4.65.31v-.35c0-.91-.5-1.98-1.85-1.98s-1.85,1.05-1.85,1.98v.35h3.7Z"/>
      <path class="cls-5" d="m255.51,92.88c0-.2.11-.32.31-.32h.17c.2,0,.29.13.32.31l.08.74c.45-.64,1.21-1.23,1.95-1.23.28,0,.62.03.59.45-.04.48-.31.41-.64.41-.6,0-1.36.67-1.82,1.32v4.86c0,.2-.12.32-.32.32h-.29c-.2,0-.34-.13-.34-.32v-6.53Z"/>
      <path class="cls-5" d="m261.55,102.22c0,.2-.13.32-.32.32h-.29c-.2,0-.34-.13-.34-.32v-9.34c0-.2.11-.32.31-.32h.15c.2,0,.32.1.34.28l.07.48c.71-.59,1.39-.94,2.17-.94,1.62,0,2.61,1.06,2.61,2.86v1.82c0,1.78-.98,2.86-2.61,2.86-.74,0-1.39-.35-2.09-.85v3.17Zm1.96-3.17c1.23,0,1.77-.74,1.77-2.23v-1.37c0-1.49-.53-2.23-1.77-2.23-.71,0-1.39.46-1.96.91v4.03c.66.48,1.23.88,1.96.88Z"/>
      <path class="cls-5" d="m268.34,92.88c0-.2.11-.32.31-.32h.17c.2,0,.29.13.32.31l.08.74c.45-.64,1.21-1.23,1.95-1.23.28,0,.62.03.59.45-.04.48-.31.41-.64.41-.6,0-1.36.67-1.82,1.32v4.86c0,.2-.13.32-.32.32h-.29c-.2,0-.34-.13-.34-.32v-6.53Z"/>
      <path class="cls-5" d="m273.28,90.54c0-.35.27-.6.62-.6s.64.25.64.6-.28.64-.64.64-.62-.29-.62-.64Zm.14,2.34c0-.2.14-.32.34-.32h.29c.2,0,.32.13.32.32v6.53c0,.2-.13.32-.32.32h-.29c-.2,0-.34-.13-.34-.32v-6.53Z"/>
      <path class="cls-5" d="m276.42,99c.04-.2.2-.28.39-.21.39.11.94.27,1.55.27,1.04,0,1.46-.48,1.46-1.2,0-1.54-3.39-1.21-3.39-3.5,0-1.23,1-1.98,2.37-1.98.62,0,1.13.11,1.43.21.21.06.25.22.21.41l-.06.18c-.06.17-.18.28-.43.21-.28-.07-.69-.15-1.13-.15-.9,0-1.37.42-1.37,1.12,0,1.46,3.39,1.23,3.39,3.5,0,1.26-.95,2.06-2.45,2.06-.73,0-1.4-.17-1.79-.29-.2-.06-.25-.22-.21-.42l.04-.2Z"/>
      <path class="cls-5" d="m282.46,95.25c0-1.51,1.04-2.87,2.8-2.87s2.8,1.42,2.8,2.87v.78c0,.15-.12.28-.27.28h-4.38v.74c0,.88.46,2,1.93,2,.73,0,1.36-.15,1.83-.28.21-.06.38-.01.42.18l.06.24c.06.18-.04.32-.25.39-.49.14-1.25.32-2.06.32-1.89,0-2.89-1.39-2.89-2.86v-1.81Zm4.65.31v-.35c0-.91-.5-1.98-1.85-1.98s-1.85,1.05-1.85,1.98v.35h3.7Z"/>
      <path class="cls-5" d="m290.18,95.87v-.18c0-.2.14-.34.34-.34h3.56c.2,0,.32.14.32.34v.18c0,.2-.13.32-.32.32h-3.56c-.2,0-.34-.13-.34-.32Z"/>
      <path class="cls-5" d="m296.25,92.91c-.06-.22.06-.35.25-.35h.34c.2,0,.34.1.39.32l.99,4.09c.1.48.24,1.18.34,1.72.14-.56.32-1.25.45-1.72l1.05-3.57c.06-.21.22-.31.42-.31h.45c.2,0,.37.11.42.31l1.05,3.57c.13.46.29,1.16.44,1.72.11-.56.25-1.25.35-1.72l.99-4.09c.06-.22.2-.32.39-.32h.34c.2,0,.31.13.25.35l-1.65,6.49c-.06.24-.21.34-.41.34h-.48c-.2,0-.35-.13-.41-.34l-1.51-5.21-1.51,5.21c-.06.2-.21.34-.41.34h-.48c-.2,0-.35-.1-.41-.34l-1.65-6.49Z"/>
      <path class="cls-5" d="m306.78,90.54c0-.35.27-.6.62-.6s.64.25.64.6-.28.64-.64.64-.62-.29-.62-.64Zm.14,2.34c0-.2.14-.32.34-.32h.29c.2,0,.32.13.32.32v6.53c0,.2-.13.32-.32.32h-.29c-.2,0-.34-.13-.34-.32v-6.53Z"/>
      <path class="cls-5" d="m309.99,95.23c0-1.79.98-2.86,2.61-2.86.74,0,1.37.32,2.07.85v-3.35c0-.2.14-.32.34-.32h.29c.2,0,.32.13.32.32v9.53c0,.2-.1.32-.29.32h-.17c-.2,0-.31-.07-.32-.27l-.07-.48c-.73.57-1.4.92-2.17.92-1.62,0-2.61-1.08-2.61-2.86v-1.82Zm2.72,3.82c.73,0,1.4-.45,1.96-.88v-4.03c-.62-.49-1.26-.91-1.96-.91-1.22,0-1.75.73-1.75,2.23v1.37c0,1.48.53,2.23,1.75,2.23Z"/>
      <path class="cls-5" d="m317.73,95.25c0-1.51,1.04-2.87,2.8-2.87s2.8,1.42,2.8,2.87v.78c0,.15-.12.28-.27.28h-4.38v.74c0,.88.46,2,1.93,2,.73,0,1.36-.15,1.83-.28.21-.06.38-.01.42.18l.06.24c.06.18-.04.32-.25.39-.49.14-1.25.32-2.06.32-1.89,0-2.89-1.39-2.89-2.86v-1.81Zm4.65.31v-.35c0-.91-.5-1.98-1.85-1.98s-1.85,1.05-1.85,1.98v.35h3.7Z"/>
      <path class="cls-5" d="m228.24,104.28c0-.2.13-.32.32-.32h.32c.2,0,.32.13.32.32v6.16c0,1.33.76,2.61,2.51,2.61s2.49-1.27,2.49-2.61v-6.16c0-.2.14-.32.34-.32h.32c.2,0,.32.13.32.32v5.91c0,2.37-1.25,3.73-3.47,3.73s-3.47-1.34-3.47-3.73v-5.91Z"/>
      <path class="cls-5" d="m238.5,116.22c0,.2-.13.32-.32.32h-.29c-.2,0-.34-.13-.34-.32v-9.34c0-.2.11-.32.31-.32h.15c.2,0,.32.1.34.28l.07.48c.71-.59,1.39-.94,2.17-.94,1.62,0,2.61,1.06,2.61,2.86v1.82c0,1.78-.98,2.86-2.61,2.86-.74,0-1.39-.35-2.09-.85v3.17Zm1.96-3.17c1.23,0,1.76-.74,1.76-2.23v-1.37c0-1.49-.53-2.23-1.76-2.23-.71,0-1.39.46-1.96.91v4.03c.66.48,1.23.88,1.96.88Z"/>
      <path class="cls-5" d="m244.99,109.23c0-1.79.98-2.86,2.61-2.86.77,0,1.44.35,2.17.94l.07-.49c.01-.17.13-.27.32-.27h.18c.2,0,.28.13.28.32v7.41c0,1.4-.8,2.26-2.3,2.26h-1.54c-.2,0-.32-.1-.36-.28l-.04-.22c-.04-.24.08-.34.28-.34h1.67c.88,0,1.34-.57,1.34-1.4v-1.37c-.69.53-1.32.8-2.07.8-1.61,0-2.61-1.06-2.61-2.86v-1.64Zm2.72,3.64c.73,0,1.32-.35,1.96-.81v-3.92c-.56-.45-1.25-.91-1.96-.91-1.22,0-1.75.73-1.75,2.23v1.19c0,1.5.53,2.23,1.75,2.23Z"/>
      <path class="cls-5" d="m253.04,106.88c0-.2.11-.32.31-.32h.17c.2,0,.29.13.32.31l.08.74c.45-.64,1.21-1.23,1.95-1.23.28,0,.62.03.59.45-.04.48-.31.41-.64.41-.6,0-1.36.67-1.82,1.32v4.86c0,.2-.12.32-.32.32h-.29c-.2,0-.34-.13-.34-.32v-6.53Z"/>
      <path class="cls-5" d="m260.68,109.75h1.32v-.69c0-1.22-.45-1.83-1.72-1.83-.69,0-1.29.14-1.64.24-.18.06-.34-.01-.39-.22l-.04-.18c-.07-.22.03-.35.22-.41.42-.13,1.09-.28,1.85-.28,1.82,0,2.68,1.04,2.68,2.51v4.52c0,.2-.1.32-.29.32h-.15c-.2,0-.31-.08-.34-.28l-.07-.45c-.59.53-1.34.91-2.2.91-1.43,0-2.28-.85-2.28-2.09,0-1.48,1.25-2.07,3.07-2.07Zm-.69,3.31c.73,0,1.46-.34,2-.85v-1.67h-1.26c-1.29,0-2.14.29-2.14,1.29,0,.73.45,1.23,1.4,1.23Z"/>
      <path class="cls-5" d="m264.99,109.23c0-1.79.98-2.86,2.61-2.86.74,0,1.37.32,2.07.85v-3.35c0-.2.14-.32.34-.32h.29c.2,0,.32.13.32.32v9.53c0,.2-.1.32-.29.32h-.17c-.2,0-.31-.07-.32-.27l-.07-.48c-.73.57-1.4.92-2.17.92-1.62,0-2.61-1.08-2.61-2.86v-1.82Zm2.72,3.82c.73,0,1.4-.45,1.96-.88v-4.03c-.62-.49-1.26-.91-1.96-.91-1.22,0-1.75.73-1.75,2.23v1.37c0,1.48.53,2.23,1.75,2.23Z"/>
      <path class="cls-5" d="m272.73,109.25c0-1.51,1.04-2.87,2.8-2.87s2.8,1.42,2.8,2.87v.78c0,.15-.13.28-.27.28h-4.38v.74c0,.88.46,2,1.93,2,.73,0,1.36-.15,1.84-.28.21-.06.38-.01.42.18l.06.24c.06.18-.04.32-.25.39-.49.14-1.25.32-2.06.32-1.89,0-2.88-1.39-2.88-2.86v-1.81Zm4.65.31v-.35c0-.91-.5-1.98-1.85-1.98s-1.85,1.05-1.85,1.98v.35h3.7Z"/>
    </g>
    <g>
      <path class="cls-5" d="m416.74,160.95c0-.2.13-.32.32-.32h.32c.2,0,.32.13.32.32v6.16c0,1.33.76,2.61,2.51,2.61s2.49-1.27,2.49-2.61v-6.16c0-.2.14-.32.34-.32h.32c.2,0,.32.13.32.32v5.91c0,2.37-1.25,3.73-3.47,3.73s-3.47-1.34-3.47-3.73v-5.91Z"/>
      <path class="cls-5" d="m426.05,163.56c0-.2.11-.32.31-.32h.15c.2,0,.31.1.34.29l.07.46c.71-.57,1.43-.94,2.21-.94,1.58,0,2.37.97,2.37,2.41v4.62c0,.2-.13.32-.32.32h-.31c-.2,0-.32-.13-.32-.32v-4.38c0-1.15-.36-1.79-1.54-1.79-.73,0-1.33.39-2,.9v5.28c0,.2-.13.32-.32.32h-.29c-.2,0-.34-.13-.34-.32v-6.53Z"/>
      <path class="cls-5" d="m434.78,172.9c0,.2-.12.32-.32.32h-.29c-.2,0-.34-.13-.34-.32v-9.34c0-.2.11-.32.31-.32h.15c.2,0,.32.1.34.28l.07.48c.71-.59,1.39-.94,2.17-.94,1.62,0,2.61,1.06,2.61,2.86v1.82c0,1.78-.98,2.86-2.61,2.86-.74,0-1.39-.35-2.09-.85v3.17Zm1.96-3.17c1.23,0,1.77-.74,1.77-2.23v-1.37c0-1.49-.53-2.23-1.77-2.23-.71,0-1.39.46-1.96.91v4.03c.66.48,1.23.88,1.96.88Z"/>
      <path class="cls-5" d="m441.59,160.56c0-.2.12-.32.32-.32h.29c.2,0,.34.13.34.32v8.6c0,.39.11.48.2.53.12.07.18.2.14.36l-.06.22c-.03.17-.13.29-.37.25-.35-.07-.87-.25-.87-1.27v-8.7Z"/>
      <path class="cls-5" d="m447.52,166.43h1.32v-.69c0-1.22-.45-1.83-1.72-1.83-.69,0-1.29.14-1.64.24-.18.06-.34-.01-.39-.22l-.04-.18c-.07-.22.03-.35.22-.41.42-.13,1.09-.28,1.85-.28,1.82,0,2.67,1.04,2.67,2.51v4.52c0,.2-.1.32-.29.32h-.15c-.2,0-.31-.08-.34-.28l-.07-.45c-.59.53-1.35.91-2.2.91-1.43,0-2.28-.85-2.28-2.09,0-1.48,1.25-2.07,3.07-2.07Zm-.69,3.31c.73,0,1.46-.34,2-.85v-1.67h-1.26c-1.29,0-2.14.29-2.14,1.29,0,.73.45,1.23,1.4,1.23Z"/>
      <path class="cls-5" d="m452.14,163.56c0-.2.11-.32.31-.32h.15c.2,0,.31.1.34.29l.07.46c.71-.57,1.43-.94,2.21-.94,1.58,0,2.37.97,2.37,2.41v4.62c0,.2-.13.32-.32.32h-.31c-.2,0-.32-.13-.32-.32v-4.38c0-1.15-.36-1.79-1.54-1.79-.73,0-1.33.39-2,.9v5.28c0,.2-.13.32-.32.32h-.29c-.2,0-.34-.13-.34-.32v-6.53Z"/>
      <path class="cls-5" d="m459.93,163.56c0-.2.11-.32.31-.32h.15c.2,0,.31.1.34.29l.07.46c.71-.57,1.43-.94,2.21-.94,1.58,0,2.37.97,2.37,2.41v4.62c0,.2-.13.32-.32.32h-.31c-.2,0-.32-.13-.32-.32v-4.38c0-1.15-.37-1.79-1.54-1.79-.73,0-1.33.39-2,.9v5.28c0,.2-.12.32-.32.32h-.29c-.2,0-.34-.13-.34-.32v-6.53Z"/>
      <path class="cls-5" d="m467.4,165.92c0-1.51,1.04-2.87,2.8-2.87s2.8,1.42,2.8,2.87v.78c0,.15-.13.28-.27.28h-4.38v.74c0,.88.46,2,1.93,2,.73,0,1.36-.15,1.83-.28.21-.06.38-.01.42.18l.06.24c.06.18-.04.32-.25.39-.49.14-1.25.32-2.06.32-1.89,0-2.89-1.39-2.89-2.86v-1.81Zm4.65.31v-.35c0-.91-.5-1.98-1.85-1.98s-1.85,1.05-1.85,1.98v.35h3.7Z"/>
      <path class="cls-5" d="m474.72,165.91c0-1.79.98-2.86,2.61-2.86.74,0,1.37.32,2.07.85v-3.35c0-.2.14-.32.34-.32h.29c.2,0,.32.13.32.32v9.53c0,.2-.1.32-.29.32h-.17c-.2,0-.31-.07-.32-.27l-.07-.48c-.73.57-1.4.92-2.17.92-1.62,0-2.61-1.08-2.61-2.86v-1.82Zm2.72,3.82c.73,0,1.4-.45,1.96-.88v-4.03c-.62-.49-1.26-.91-1.96-.91-1.22,0-1.75.73-1.75,2.23v1.37c0,1.48.53,2.23,1.75,2.23Z"/>
      <path class="cls-5" d="m407.86,174.95c0-.2.13-.32.32-.32h.31c.2,0,.35.11.48.31l4.54,7.75c-.03-.6-.05-1.23-.05-1.71v-6.02c0-.2.12-.32.32-.32h.32c.2,0,.32.13.32.32v9.13c0,.2-.13.32-.32.32h-.31c-.2,0-.37-.13-.49-.34l-4.53-7.7c.03.59.06,1.23.06,1.7v6.02c0,.2-.13.32-.32.32h-.32c-.2,0-.32-.13-.32-.32v-9.13Z"/>
      <path class="cls-5" d="m416.68,179.92c0-1.51,1.04-2.87,2.8-2.87s2.8,1.42,2.8,2.87v.78c0,.15-.13.28-.27.28h-4.38v.74c0,.88.46,2,1.93,2,.73,0,1.36-.15,1.84-.28.21-.06.38-.01.42.18l.06.24c.06.18-.04.32-.25.39-.49.14-1.25.32-2.06.32-1.89,0-2.88-1.39-2.88-2.86v-1.81Zm4.65.31v-.35c0-.91-.5-1.98-1.85-1.98s-1.85,1.05-1.85,1.98v.35h3.7Z"/>
      <path class="cls-5" d="m423.67,177.58c-.06-.22.06-.35.25-.35h.34c.2,0,.34.1.39.32l.99,4.09c.1.48.24,1.18.34,1.72.14-.56.32-1.25.45-1.72l1.05-3.57c.06-.21.22-.31.42-.31h.45c.2,0,.36.11.42.31l1.05,3.57c.13.46.29,1.16.43,1.72.11-.56.25-1.25.35-1.72l1-4.09c.05-.22.2-.32.39-.32h.34c.2,0,.31.13.25.35l-1.65,6.49c-.06.24-.21.34-.41.34h-.48c-.2,0-.35-.13-.41-.34l-1.51-5.21-1.51,5.21c-.06.2-.21.34-.41.34h-.48c-.2,0-.35-.1-.41-.34l-1.65-6.49Z"/>
      <path class="cls-5" d="m438.79,186.9c0,.2-.12.32-.32.32h-.29c-.2,0-.34-.13-.34-.32v-9.34c0-.2.11-.32.31-.32h.15c.2,0,.32.1.34.28l.07.48c.71-.59,1.39-.94,2.17-.94,1.62,0,2.61,1.06,2.61,2.86v1.82c0,1.78-.98,2.86-2.61,2.86-.74,0-1.39-.35-2.09-.85v3.17Zm1.96-3.17c1.23,0,1.77-.74,1.77-2.23v-1.37c0-1.49-.53-2.23-1.77-2.23-.71,0-1.39.46-1.96.91v4.03c.66.48,1.23.88,1.96.88Z"/>
      <path class="cls-5" d="m445.44,175.22c0-.35.27-.6.62-.6s.64.25.64.6-.28.64-.64.64-.62-.29-.62-.64Zm.14,2.34c0-.2.14-.32.34-.32h.29c.2,0,.32.13.32.32v6.53c0,.2-.13.32-.32.32h-.29c-.2,0-.34-.13-.34-.32v-6.53Z"/>
      <path class="cls-5" d="m449.9,186.9c0,.2-.13.32-.32.32h-.29c-.2,0-.34-.13-.34-.32v-9.34c0-.2.11-.32.31-.32h.15c.2,0,.32.1.34.28l.07.48c.71-.59,1.39-.94,2.17-.94,1.62,0,2.61,1.06,2.61,2.86v1.82c0,1.78-.98,2.86-2.61,2.86-.74,0-1.39-.35-2.09-.85v3.17Zm1.96-3.17c1.23,0,1.76-.74,1.76-2.23v-1.37c0-1.49-.53-2.23-1.76-2.23-.71,0-1.39.46-1.96.91v4.03c.66.48,1.23.88,1.96.88Z"/>
      <path class="cls-5" d="m456.38,179.92c0-1.51,1.04-2.87,2.8-2.87s2.8,1.42,2.8,2.87v.78c0,.15-.13.28-.27.28h-4.38v.74c0,.88.46,2,1.93,2,.73,0,1.36-.15,1.83-.28.21-.06.38-.01.42.18l.06.24c.06.18-.04.32-.25.39-.49.14-1.25.32-2.06.32-1.89,0-2.89-1.39-2.89-2.86v-1.81Zm4.65.31v-.35c0-.91-.5-1.98-1.85-1.98s-1.85,1.05-1.85,1.98v.35h3.7Z"/>
      <path class="cls-5" d="m464.03,174.56c0-.2.12-.32.32-.32h.29c.2,0,.34.13.34.32v8.6c0,.39.11.48.2.53.12.07.18.2.14.36l-.06.22c-.03.17-.13.29-.37.25-.35-.07-.87-.25-.87-1.27v-8.7Z"/>
      <path class="cls-5" d="m467.26,175.22c0-.35.27-.6.62-.6s.64.25.64.6-.28.64-.64.64-.62-.29-.62-.64Zm.14,2.34c0-.2.14-.32.34-.32h.29c.2,0,.32.13.32.32v6.53c0,.2-.13.32-.32.32h-.29c-.2,0-.34-.13-.34-.32v-6.53Z"/>
      <path class="cls-5" d="m470.78,177.56c0-.2.11-.32.31-.32h.15c.2,0,.31.1.34.29l.07.46c.71-.57,1.43-.94,2.21-.94,1.58,0,2.37.97,2.37,2.41v4.62c0,.2-.13.32-.32.32h-.31c-.2,0-.32-.13-.32-.32v-4.38c0-1.15-.37-1.79-1.54-1.79-.73,0-1.33.39-2,.9v5.28c0,.2-.12.32-.32.32h-.29c-.2,0-.34-.13-.34-.32v-6.53Z"/>
      <path class="cls-5" d="m478.25,179.92c0-1.51,1.04-2.87,2.8-2.87s2.8,1.42,2.8,2.87v.78c0,.15-.13.28-.27.28h-4.38v.74c0,.88.46,2,1.93,2,.73,0,1.36-.15,1.83-.28.21-.06.38-.01.42.18l.06.24c.06.18-.04.32-.25.39-.49.14-1.25.32-2.06.32-1.89,0-2.89-1.39-2.89-2.86v-1.81Zm4.65.31v-.35c0-.91-.5-1.98-1.85-1.98s-1.85,1.05-1.85,1.98v.35h3.7Z"/>
      <path class="cls-5" d="m485.5,183.68c.04-.2.2-.28.39-.21.39.11.94.27,1.55.27,1.04,0,1.46-.48,1.46-1.2,0-1.54-3.39-1.21-3.39-3.5,0-1.23,1-1.98,2.37-1.98.62,0,1.13.11,1.43.21.21.06.25.22.21.41l-.06.18c-.06.17-.18.28-.43.21-.28-.07-.69-.15-1.13-.15-.9,0-1.37.42-1.37,1.12,0,1.46,3.39,1.23,3.39,3.5,0,1.26-.95,2.06-2.45,2.06-.73,0-1.4-.17-1.79-.29-.2-.06-.25-.22-.21-.42l.04-.2Z"/>
    </g>
    <g>
      <path class="cls-5" d="m436.45,91.13c0-1.46.87-2.42,2.72-2.42h2.2c.2,0,.32.13.32.32v.22c0,.2-.13.32-.32.32h-2.2c-1.36,0-1.74.64-1.74,1.58v1.88h3.52c.2,0,.32.13.32.32v.22c0,.2-.13.32-.32.32h-3.52v2.13c0,.95.38,1.58,1.74,1.58h2.26c.2,0,.32.13.32.32v.22c0,.2-.13.32-.32.32h-2.26c-1.83,0-2.72-.97-2.72-2.41v-4.94Z"/>
      <path class="cls-5" d="m443.56,92.47c0-2.37,1.37-3.95,3.66-3.95s3.66,1.58,3.66,3.95v2.23c0,2.42-1.37,3.96-3.66,3.96s-3.66-1.54-3.66-3.96v-2.23Zm3.66,5.32c2.02,0,2.65-1.51,2.65-3.24v-1.93c0-1.71-.63-3.24-2.65-3.24s-2.65,1.53-2.65,3.24v1.93c0,1.72.63,3.24,2.65,3.24Z"/>
      <path class="cls-5" d="m453.21,89.03c0-.2.13-.32.32-.32h4.57c.2,0,.32.13.32.32v.22c0,.2-.13.32-.32.32h-3.92v3.61h3.49c.2,0,.34.13.34.32v.22c0,.2-.14.32-.34.32h-3.49v4.1c0,.2-.13.32-.32.32h-.32c-.2,0-.32-.13-.32-.32v-9.13Z"/>
      <path class="cls-5" d="m462.63,94.39c-1.57-.2-2.09-1.43-2.34-2.73l-.49-2.59c-.04-.22.07-.36.27-.36h.31c.2,0,.34.13.38.34l.48,2.42c.2,1.02.46,2.1,1.89,2.1s1.7-1.05,1.89-2.1l.46-2.41c.04-.21.18-.35.38-.35h.32c.2,0,.31.14.27.35l-.49,2.61c-.27,1.32-.78,2.55-2.35,2.73v3.77c0,.2-.13.32-.32.32h-.32c-.2,0-.32-.13-.32-.32v-3.77Z"/>
      <path class="cls-5" d="m472.01,89.03c0-.2.13-.32.32-.32h2.97c2.37,0,3.5,1.09,3.5,3.46v2.87c0,2.35-1.13,3.45-3.5,3.45h-2.97c-.2,0-.32-.13-.32-.32v-9.13Zm3.28,8.59c2.05,0,2.52-1.08,2.52-2.76v-2.54c0-1.67-.48-2.75-2.52-2.75h-2.31v8.04h2.31Z"/>
      <path class="cls-5" d="m483.54,94.5h1.32v-.69c0-1.22-.45-1.83-1.72-1.83-.69,0-1.29.14-1.64.24-.18.06-.34-.01-.39-.22l-.04-.18c-.07-.22.03-.35.22-.41.42-.13,1.09-.28,1.85-.28,1.82,0,2.68,1.04,2.68,2.51v4.52c0,.2-.1.32-.29.32h-.15c-.2,0-.31-.08-.34-.28l-.07-.45c-.59.53-1.34.91-2.2.91-1.43,0-2.28-.85-2.28-2.09,0-1.49,1.25-2.07,3.07-2.07Zm-.69,3.31c.73,0,1.46-.34,2-.85v-1.67h-1.26c-1.29,0-2.14.29-2.14,1.29,0,.73.45,1.23,1.4,1.23Z"/>
      <path class="cls-5" d="m488.33,92.07l-.87-.06c-.21-.03-.31-.11-.31-.31v-.1c0-.2.12-.29.32-.29h.85v-2.03c0-.2.13-.32.32-.32h.29c.2,0,.34.13.34.32v2.03h1.43c.2,0,.34.11.34.31v.14c0,.2-.14.31-.34.31h-1.43v4.37c0,1.04.52,1.37,1.18,1.37.27,0,.5-.03.63-.06.2-.03.34.04.36.22l.04.24c.04.18-.04.34-.24.38-.21.04-.5.07-.83.07-1.26,0-2.1-.77-2.1-2.1v-4.5Z"/>
      <path class="cls-5" d="m495.61,94.5h1.32v-.69c0-1.22-.45-1.83-1.72-1.83-.69,0-1.29.14-1.64.24-.18.06-.34-.01-.39-.22l-.04-.18c-.07-.22.03-.35.22-.41.42-.13,1.09-.28,1.85-.28,1.82,0,2.68,1.04,2.68,2.51v4.52c0,.2-.1.32-.29.32h-.15c-.2,0-.31-.08-.34-.28l-.07-.45c-.59.53-1.34.91-2.2.91-1.43,0-2.28-.85-2.28-2.09,0-1.49,1.25-2.07,3.07-2.07Zm-.69,3.31c.73,0,1.46-.34,2-.85v-1.67h-1.26c-1.29,0-2.14.29-2.14,1.29,0,.73.45,1.23,1.4,1.23Z"/>
      <path class="cls-5" d="m457.46,103.03c0-.2.13-.32.32-.32h2.31c2.07,0,3.18,1.39,3.18,3.03s-1.11,3-3.18,3h-1.67v3.43c0,.2-.13.32-.32.32h-.32c-.2,0-.32-.13-.32-.32v-9.13Zm2.61,4.83c1.6,0,2.2-1.11,2.2-2.13s-.6-2.14-2.2-2.14h-1.64v4.27h1.64Z"/>
      <path class="cls-5" d="m465.22,105.63c0-.2.11-.32.31-.32h.17c.2,0,.29.13.32.31l.08.74c.45-.64,1.21-1.23,1.95-1.23.28,0,.62.03.59.45-.04.48-.31.41-.64.41-.6,0-1.36.67-1.82,1.32v4.86c0,.2-.13.32-.32.32h-.29c-.2,0-.34-.13-.34-.32v-6.53Z"/>
      <path class="cls-5" d="m469.99,108.25c0-1.93,1.09-3.12,2.93-3.12s2.91,1.19,2.91,3.12v1.28c0,1.95-1.09,3.14-2.91,3.14s-2.93-1.19-2.93-3.14v-1.28Zm2.93,3.56c1.41,0,1.95-.94,1.95-2.4v-1.06c0-1.43-.55-2.37-1.95-2.37s-1.96.94-1.96,2.37v1.06c0,1.46.53,2.4,1.96,2.4Z"/>
      <path class="cls-5" d="m477.93,105.63c0-.2.14-.32.34-.32h.29c.2,0,.32.13.32.32v7.73c0,1.29-.74,2.12-2,2.12-.31,0-.58-.03-.77-.07-.2-.04-.28-.2-.25-.36l.04-.22c.03-.18.15-.28.37-.24.14.01.34.04.6.04.66,0,1.06-.35,1.06-1.39v-7.61Zm-.14-2.34c0-.35.27-.6.62-.6s.64.25.64.6-.28.64-.64.64-.62-.29-.62-.64Z"/>
      <path class="cls-5" d="m481,108c0-1.51,1.04-2.87,2.8-2.87s2.8,1.42,2.8,2.87v.79c0,.15-.13.28-.27.28h-4.38v.74c0,.88.46,2,1.93,2,.73,0,1.36-.15,1.83-.28.21-.06.38-.01.42.18l.06.24c.06.18-.04.32-.25.39-.49.14-1.25.32-2.06.32-1.89,0-2.89-1.39-2.89-2.86v-1.81Zm4.65.31v-.35c0-.91-.5-1.97-1.85-1.97s-1.85,1.05-1.85,1.97v.35h3.7Z"/>
      <path class="cls-5" d="m488.32,108.28c0-1.91,1.01-3.15,2.86-3.15.74,0,1.37.13,1.85.25.22.07.34.2.28.42l-.06.2c-.06.21-.22.27-.45.21-.38-.11-.97-.22-1.6-.22-1.44,0-1.92.99-1.92,2.4v.99c0,1.43.48,2.44,1.92,2.44.67,0,1.22-.13,1.62-.24.24-.07.36.03.42.2l.06.21c.06.21-.04.36-.27.42-.49.13-1.12.27-1.86.27-1.85,0-2.86-1.28-2.86-3.18v-1.21Z"/>
      <path class="cls-5" d="m495.51,106.07l-.87-.06c-.21-.03-.31-.11-.31-.31v-.1c0-.2.13-.29.32-.29h.85v-2.03c0-.2.13-.32.32-.32h.29c.2,0,.34.13.34.32v2.03h1.43c.2,0,.34.11.34.31v.14c0,.2-.14.31-.34.31h-1.43v4.37c0,1.04.52,1.37,1.18,1.37.27,0,.5-.03.63-.06.2-.03.34.04.37.22l.04.24c.04.18-.04.34-.24.38-.21.04-.5.07-.83.07-1.26,0-2.1-.77-2.1-2.1v-4.5Z"/>
    </g>
    <g>
      <path class="cls-5" d="m61.1,162.51c.04-.21.21-.28.41-.22.55.15,1.29.38,2.11.38,1.44,0,2.07-.74,2.07-1.84,0-2.41-4.57-1.78-4.57-4.85,0-1.64,1.21-2.59,2.97-2.59.77,0,1.46.2,1.92.36.21.07.31.21.24.43l-.06.2c-.07.2-.24.25-.43.18-.41-.13-.99-.31-1.67-.31-1.27,0-1.95.63-1.95,1.72,0,2.17,4.57,1.71,4.57,4.85,0,1.64-1.16,2.7-3.1,2.7-.91,0-1.69-.21-2.3-.38-.21-.06-.31-.2-.27-.42l.04-.22Z"/>
      <path class="cls-5" d="m68.42,159.15c0-1.91,1.01-3.15,2.86-3.15.74,0,1.37.13,1.85.25.22.07.34.2.28.42l-.06.2c-.06.21-.22.27-.45.21-.38-.11-.97-.22-1.6-.22-1.44,0-1.92,1-1.92,2.4v.99c0,1.43.48,2.44,1.92,2.44.67,0,1.22-.13,1.62-.24.24-.07.36.03.42.2l.06.21c.06.21-.04.36-.27.42-.49.13-1.12.27-1.86.27-1.85,0-2.86-1.27-2.86-3.18v-1.2Z"/>
      <path class="cls-5" d="m75.45,153.5c0-.2.14-.32.34-.32h.29c.2,0,.32.13.32.32v3.36c.7-.52,1.37-.87,2.13-.87,1.58,0,2.37.97,2.37,2.41v4.62c0,.2-.13.32-.32.32h-.31c-.2,0-.32-.12-.32-.32v-4.4c0-1.15-.36-1.78-1.54-1.78-.71,0-1.33.38-2,.88v5.29c0,.2-.13.32-.32.32h-.29c-.2,0-.34-.12-.34-.32v-9.52Z"/>
      <path class="cls-5" d="m82.92,158.87c0-1.51,1.04-2.87,2.8-2.87s2.8,1.42,2.8,2.87v.79c0,.15-.13.28-.27.28h-4.38v.74c0,.88.46,2,1.93,2,.73,0,1.36-.15,1.83-.28.21-.06.38-.01.42.18l.06.24c.06.18-.04.32-.25.39-.49.14-1.25.32-2.06.32-1.89,0-2.89-1.39-2.89-2.86v-1.81Zm4.65.31v-.35c0-.91-.5-1.98-1.85-1.98s-1.85,1.05-1.85,1.98v.35h3.7Z"/>
      <path class="cls-5" d="m90.25,158.85c0-1.79.98-2.86,2.61-2.86.74,0,1.37.32,2.07.85v-3.35c0-.2.14-.32.34-.32h.29c.2,0,.32.13.32.32v9.52c0,.2-.1.32-.29.32h-.17c-.2,0-.31-.07-.32-.27l-.07-.48c-.73.57-1.4.92-2.17.92-1.62,0-2.61-1.08-2.61-2.86v-1.82Zm2.72,3.82c.73,0,1.4-.45,1.96-.88v-4.03c-.62-.49-1.26-.91-1.96-.91-1.22,0-1.75.73-1.75,2.23v1.37c0,1.48.53,2.23,1.75,2.23Z"/>
      <path class="cls-5" d="m98.23,156.5c0-.2.14-.32.34-.32h.29c.2,0,.32.13.32.32v4.38c0,1.16.36,1.79,1.55,1.79.71,0,1.33-.38,1.99-.9v-5.28c0-.2.13-.32.32-.32h.31c.2,0,.32.13.32.32v6.53c0,.2-.11.32-.31.32h-.14c-.21,0-.32-.07-.35-.27l-.06-.49c-.71.57-1.44.94-2.21.94-1.58,0-2.38-.97-2.38-2.42v-4.61Z"/>
      <path class="cls-5" d="m106.09,153.5c0-.2.13-.32.32-.32h.29c.2,0,.34.13.34.32v8.6c0,.39.11.48.2.53.13.07.18.2.14.36l-.06.22c-.03.17-.13.29-.36.25-.35-.07-.87-.25-.87-1.28v-8.7Z"/>
      <path class="cls-5" d="m109.16,158.87c0-1.51,1.04-2.87,2.8-2.87s2.8,1.42,2.8,2.87v.79c0,.15-.13.28-.27.28h-4.38v.74c0,.88.46,2,1.93,2,.73,0,1.36-.15,1.83-.28.21-.06.38-.01.42.18l.06.24c.06.18-.04.32-.25.39-.49.14-1.25.32-2.06.32-1.89,0-2.89-1.39-2.89-2.86v-1.81Zm4.65.31v-.35c0-.91-.5-1.98-1.85-1.98s-1.85,1.05-1.85,1.98v.35h3.7Z"/>
      <path class="cls-5" d="m116.48,158.85c0-1.79.98-2.86,2.61-2.86.74,0,1.37.32,2.07.85v-3.35c0-.2.14-.32.34-.32h.29c.2,0,.32.13.32.32v9.52c0,.2-.1.32-.29.32h-.17c-.2,0-.31-.07-.32-.27l-.07-.48c-.73.57-1.4.92-2.17.92-1.62,0-2.61-1.08-2.61-2.86v-1.82Zm2.72,3.82c.73,0,1.4-.45,1.96-.88v-4.03c-.62-.49-1.26-.91-1.96-.91-1.22,0-1.75.73-1.75,2.23v1.37c0,1.48.53,2.23,1.75,2.23Z"/>
      <path class="cls-5" d="m61.56,167.89c0-.2.13-.32.32-.32h2.97c2.37,0,3.5,1.09,3.5,3.46v2.87c0,2.35-1.13,3.45-3.5,3.45h-2.97c-.2,0-.32-.12-.32-.32v-9.13Zm3.28,8.59c2.05,0,2.52-1.08,2.52-2.76v-2.54c0-1.67-.48-2.75-2.52-2.75h-2.31v8.04h2.31Z"/>
      <path class="cls-5" d="m73.1,173.37h1.32v-.69c0-1.22-.45-1.83-1.72-1.83-.69,0-1.29.14-1.64.24-.18.06-.34-.01-.39-.22l-.04-.18c-.07-.22.03-.35.22-.41.42-.13,1.09-.28,1.85-.28,1.82,0,2.68,1.04,2.68,2.51v4.52c0,.2-.1.32-.29.32h-.15c-.2,0-.31-.08-.34-.28l-.07-.45c-.59.53-1.34.91-2.2.91-1.43,0-2.28-.85-2.28-2.09,0-1.48,1.25-2.07,3.07-2.07Zm-.69,3.31c.73,0,1.46-.34,2-.85v-1.67h-1.26c-1.29,0-2.14.29-2.14,1.29,0,.73.45,1.23,1.4,1.23Z"/>
      <path class="cls-5" d="m77.88,170.93l-.87-.06c-.21-.03-.31-.11-.31-.31v-.1c0-.2.13-.29.32-.29h.85v-2.03c0-.2.13-.32.32-.32h.29c.2,0,.34.13.34.32v2.03h1.43c.2,0,.34.11.34.31v.14c0,.2-.14.31-.34.31h-1.43v4.37c0,1.04.52,1.37,1.18,1.37.27,0,.5-.03.63-.06.2-.03.34.04.36.22l.04.24c.04.18-.04.34-.24.38-.21.04-.5.07-.83.07-1.26,0-2.1-.77-2.1-2.1v-4.5Z"/>
      <path class="cls-5" d="m85.17,173.37h1.32v-.69c0-1.22-.45-1.83-1.72-1.83-.69,0-1.29.14-1.64.24-.18.06-.34-.01-.39-.22l-.04-.18c-.07-.22.03-.35.22-.41.42-.13,1.09-.28,1.85-.28,1.82,0,2.67,1.04,2.67,2.51v4.52c0,.2-.1.32-.29.32h-.15c-.2,0-.31-.08-.34-.28l-.07-.45c-.59.53-1.34.91-2.2.91-1.43,0-2.28-.85-2.28-2.09,0-1.48,1.25-2.07,3.07-2.07Zm-.69,3.31c.73,0,1.46-.34,2-.85v-1.67h-1.26c-1.29,0-2.14.29-2.14,1.29,0,.73.45,1.23,1.4,1.23Z"/>
      <path class="cls-5" d="m92.91,176.62c.04-.2.2-.28.39-.21.39.11.94.27,1.55.27,1.04,0,1.46-.48,1.46-1.21,0-1.54-3.39-1.2-3.39-3.5,0-1.23.99-1.97,2.37-1.97.62,0,1.13.11,1.43.21.21.06.25.22.21.41l-.06.18c-.06.17-.18.28-.43.21-.28-.07-.69-.15-1.13-.15-.9,0-1.37.42-1.37,1.12,0,1.46,3.39,1.23,3.39,3.5,0,1.26-.95,2.06-2.45,2.06-.73,0-1.4-.17-1.79-.29-.2-.06-.25-.22-.21-.42l.04-.2Z"/>
      <path class="cls-5" d="m98.95,172.87c0-1.51,1.04-2.87,2.8-2.87s2.8,1.42,2.8,2.87v.79c0,.15-.13.28-.27.28h-4.38v.74c0,.88.46,2,1.93,2,.73,0,1.36-.15,1.83-.28.21-.06.38-.01.42.18l.06.24c.06.18-.04.32-.25.39-.49.14-1.25.32-2.06.32-1.89,0-2.89-1.39-2.89-2.86v-1.81Zm4.65.31v-.35c0-.91-.5-1.98-1.85-1.98s-1.85,1.05-1.85,1.98v.35h3.7Z"/>
      <path class="cls-5" d="m106.58,170.5c0-.2.11-.32.31-.32h.17c.2,0,.29.13.32.31l.08.74c.45-.64,1.21-1.23,1.95-1.23.28,0,.62.03.59.45-.04.48-.31.41-.64.41-.6,0-1.36.67-1.82,1.32v4.86c0,.2-.13.32-.32.32h-.29c-.2,0-.34-.12-.34-.32v-6.53Z"/>
      <path class="cls-5" d="m111.01,170.54c-.07-.21.03-.37.22-.37h.34c.2,0,.31.08.39.31l1.44,4.16c.17.5.38,1.29.53,1.86.14-.57.36-1.34.55-1.86l1.44-4.16c.07-.22.2-.31.39-.31h.34c.2,0,.29.15.22.37l-2.26,6.47c-.07.2-.22.34-.43.34h-.5c-.2,0-.35-.11-.42-.34l-2.25-6.47Z"/>
      <path class="cls-5" d="m118.48,168.16c0-.35.27-.6.62-.6s.64.25.64.6-.28.64-.64.64-.62-.29-.62-.64Zm.14,2.34c0-.2.14-.32.34-.32h.29c.2,0,.32.13.32.32v6.53c0,.2-.13.32-.32.32h-.29c-.2,0-.34-.12-.34-.32v-6.53Z"/>
      <path class="cls-5" d="m121.69,173.15c0-1.91,1.01-3.15,2.86-3.15.74,0,1.37.13,1.85.25.22.07.34.2.28.42l-.06.2c-.06.21-.22.27-.45.21-.38-.11-.97-.22-1.6-.22-1.44,0-1.92,1-1.92,2.4v.99c0,1.43.48,2.44,1.92,2.44.67,0,1.22-.13,1.62-.24.24-.07.36.03.42.2l.06.21c.06.21-.04.36-.27.42-.49.13-1.12.27-1.86.27-1.85,0-2.86-1.27-2.86-3.18v-1.2Z"/>
      <path class="cls-5" d="m128.41,172.87c0-1.51,1.04-2.87,2.8-2.87s2.8,1.42,2.8,2.87v.79c0,.15-.13.28-.27.28h-4.38v.74c0,.88.46,2,1.93,2,.73,0,1.36-.15,1.83-.28.21-.06.38-.01.42.18l.06.24c.06.18-.04.32-.25.39-.49.14-1.25.32-2.06.32-1.89,0-2.89-1.39-2.89-2.86v-1.81Zm4.65.31v-.35c0-.91-.5-1.98-1.85-1.98s-1.85,1.05-1.85,1.98v.35h3.7Z"/>
    </g>
    <g>
      <path class="cls-5" d="m275.08,206.03c.04-.21.21-.28.41-.22.55.15,1.29.38,2.11.38,1.44,0,2.07-.74,2.07-1.83,0-2.41-4.57-1.78-4.57-4.85,0-1.64,1.2-2.59,2.97-2.59.77,0,1.46.2,1.92.36.21.07.31.21.24.43l-.06.2c-.07.2-.24.25-.43.18-.41-.13-1-.31-1.67-.31-1.27,0-1.95.63-1.95,1.72,0,2.17,4.57,1.71,4.57,4.85,0,1.64-1.16,2.7-3.1,2.7-.91,0-1.69-.21-2.3-.38-.21-.06-.31-.2-.27-.42l.04-.22Z"/>
      <path class="cls-5" d="m282.4,202.67c0-1.91,1.01-3.15,2.86-3.15.74,0,1.37.13,1.85.25.22.07.34.2.28.42l-.06.2c-.06.21-.22.27-.45.21-.38-.11-.97-.22-1.6-.22-1.44,0-1.92.99-1.92,2.4v.99c0,1.43.48,2.44,1.92,2.44.67,0,1.22-.13,1.62-.24.24-.07.36.03.42.2l.06.21c.06.21-.04.36-.27.42-.49.13-1.12.27-1.86.27-1.85,0-2.86-1.28-2.86-3.18v-1.21Z"/>
      <path class="cls-5" d="m291.99,202.89h1.32v-.69c0-1.22-.45-1.83-1.72-1.83-.69,0-1.29.14-1.64.24-.18.06-.34-.01-.39-.22l-.04-.18c-.07-.22.03-.35.22-.41.42-.13,1.09-.28,1.85-.28,1.82,0,2.68,1.04,2.68,2.51v4.52c0,.2-.1.32-.29.32h-.15c-.2,0-.31-.08-.34-.28l-.07-.45c-.59.53-1.34.91-2.2.91-1.43,0-2.28-.85-2.28-2.09,0-1.49,1.25-2.07,3.07-2.07Zm-.69,3.31c.73,0,1.46-.34,2-.85v-1.67h-1.26c-1.29,0-2.14.29-2.14,1.29,0,.73.45,1.23,1.4,1.23Z"/>
      <path class="cls-5" d="m296.63,197.02c0-.2.12-.32.32-.32h.29c.2,0,.34.13.34.32v8.6c0,.39.11.48.2.53.12.07.18.2.14.36l-.06.22c-.03.17-.13.29-.37.25-.35-.07-.87-.25-.87-1.27v-8.7Z"/>
      <path class="cls-5" d="m299.69,202.38c0-1.51,1.04-2.87,2.8-2.87s2.8,1.42,2.8,2.87v.79c0,.15-.12.28-.27.28h-4.38v.74c0,.88.46,2,1.93,2,.73,0,1.36-.15,1.83-.28.21-.06.38-.01.42.18l.06.24c.06.18-.04.32-.25.39-.49.14-1.25.32-2.06.32-1.89,0-2.89-1.39-2.89-2.86v-1.81Zm4.65.31v-.35c0-.91-.5-1.97-1.85-1.97s-1.85,1.05-1.85,1.97v.35h3.7Z"/>
      <path class="cls-5" d="m310.82,197.02c0-.2.14-.32.34-.32h.29c.2,0,.32.13.32.32v3.32c.7-.53,1.34-.83,2.09-.83,1.62,0,2.61,1.06,2.61,2.86v1.82c0,1.78-.98,2.86-2.61,2.86-.78,0-1.44-.32-2.17-.9l-.07.45c-.01.18-.13.27-.32.27h-.18c-.2,0-.29-.13-.29-.32v-9.52Zm2.91,9.17c1.25,0,1.76-.73,1.76-2.23v-1.37c0-1.5-.52-2.23-1.76-2.23-.71,0-1.3.39-1.96.87v4.1c.57.43,1.25.85,1.96.85Z"/>
      <path class="cls-5" d="m321.13,202.89h1.32v-.69c0-1.22-.45-1.83-1.72-1.83-.69,0-1.29.14-1.64.24-.18.06-.34-.01-.39-.22l-.04-.18c-.07-.22.03-.35.22-.41.42-.13,1.09-.28,1.85-.28,1.82,0,2.67,1.04,2.67,2.51v4.52c0,.2-.1.32-.29.32h-.15c-.2,0-.31-.08-.34-.28l-.07-.45c-.59.53-1.35.91-2.2.91-1.43,0-2.28-.85-2.28-2.09,0-1.49,1.25-2.07,3.07-2.07Zm-.69,3.31c.73,0,1.46-.34,2-.85v-1.67h-1.26c-1.29,0-2.14.29-2.14,1.29,0,.73.45,1.23,1.4,1.23Z"/>
      <path class="cls-5" d="m325.44,202.67c0-1.91,1.01-3.15,2.86-3.15.74,0,1.37.13,1.85.25.22.07.34.2.28.42l-.06.2c-.06.21-.22.27-.45.21-.38-.11-.97-.22-1.6-.22-1.44,0-1.92.99-1.92,2.4v.99c0,1.43.48,2.44,1.92,2.44.67,0,1.22-.13,1.62-.24.24-.07.36.03.42.2l.06.21c.06.21-.04.36-.27.42-.49.13-1.12.27-1.86.27-1.85,0-2.86-1.28-2.86-3.18v-1.21Z"/>
      <path class="cls-5" d="m332.47,197.02c0-.2.14-.32.34-.32h.29c.2,0,.32.13.32.32v5.76l1.51-.39c.39-.11.6-.39.71-.66l.7-1.75c.08-.2.22-.28.42-.28h.34c.21,0,.29.14.21.34l-.83,2.02c-.18.43-.49.83-.97,1.02l1.96,3.43c.11.18.01.36-.18.36h-.39c-.2,0-.34-.07-.45-.27l-1.81-3.25-1.23.32v2.87c0,.2-.12.32-.32.32h-.29c-.2,0-.34-.13-.34-.32v-9.52Z"/>
      <path class="cls-5" d="m273.36,216.64c0-1.93,1.09-3.12,2.93-3.12s2.91,1.19,2.91,3.12v1.28c0,1.95-1.09,3.14-2.91,3.14s-2.93-1.19-2.93-3.14v-1.28Zm2.93,3.56c1.42,0,1.95-.94,1.95-2.4v-1.06c0-1.43-.55-2.37-1.95-2.37s-1.96.94-1.96,2.37v1.06c0,1.46.53,2.4,1.96,2.4Z"/>
      <path class="cls-5" d="m281.3,214.02c0-.2.11-.32.31-.32h.15c.2,0,.31.1.34.29l.07.46c.71-.57,1.43-.94,2.21-.94,1.58,0,2.37.97,2.37,2.41v4.62c0,.2-.13.32-.32.32h-.31c-.2,0-.32-.13-.32-.32v-4.38c0-1.15-.36-1.79-1.54-1.79-.73,0-1.33.39-2,.9v5.28c0,.2-.13.32-.32.32h-.29c-.2,0-.34-.13-.34-.32v-6.53Z"/>
      <path class="cls-5" d="m292.58,211.02c0-.2.14-.32.34-.32h.29c.2,0,.32.13.32.32v3.36c.7-.52,1.37-.87,2.13-.87,1.58,0,2.37.97,2.37,2.41v4.62c0,.2-.13.32-.32.32h-.31c-.2,0-.32-.13-.32-.32v-4.4c0-1.15-.36-1.78-1.54-1.78-.71,0-1.33.38-2,.88v5.29c0,.2-.13.32-.32.32h-.29c-.2,0-.34-.13-.34-.32v-9.52Z"/>
      <path class="cls-5" d="m300.06,216.64c0-1.93,1.09-3.12,2.93-3.12s2.91,1.19,2.91,3.12v1.28c0,1.95-1.09,3.14-2.91,3.14s-2.93-1.19-2.93-3.14v-1.28Zm2.93,3.56c1.41,0,1.95-.94,1.95-2.4v-1.06c0-1.43-.55-2.37-1.95-2.37s-1.96.94-1.96,2.37v1.06c0,1.46.53,2.4,1.96,2.4Z"/>
      <path class="cls-5" d="m308.01,211.02c0-.2.13-.32.32-.32h.29c.2,0,.34.13.34.32v8.6c0,.39.11.48.2.53.13.07.18.2.14.36l-.06.22c-.03.17-.13.29-.36.25-.35-.07-.87-.25-.87-1.27v-8.7Z"/>
      <path class="cls-5" d="m311.24,211.68c0-.35.27-.6.62-.6s.64.25.64.6-.28.64-.64.64-.62-.29-.62-.64Zm.14,2.34c0-.2.14-.32.34-.32h.29c.2,0,.32.13.32.32v6.53c0,.2-.13.32-.32.32h-.29c-.2,0-.34-.13-.34-.32v-6.53Z"/>
      <path class="cls-5" d="m314.45,216.37c0-1.79.98-2.86,2.61-2.86.74,0,1.37.32,2.07.85v-3.35c0-.2.14-.32.34-.32h.29c.2,0,.32.13.32.32v9.52c0,.2-.1.32-.29.32h-.17c-.2,0-.31-.07-.32-.27l-.07-.48c-.73.57-1.4.92-2.17.92-1.62,0-2.61-1.08-2.61-2.86v-1.82Zm2.72,3.82c.73,0,1.4-.45,1.96-.88v-4.03c-.62-.49-1.26-.91-1.96-.91-1.22,0-1.75.73-1.75,2.23v1.37c0,1.49.53,2.23,1.75,2.23Z"/>
      <path class="cls-5" d="m325.06,216.89h1.32v-.69c0-1.22-.45-1.83-1.72-1.83-.69,0-1.29.14-1.64.24-.18.06-.34-.01-.39-.22l-.04-.18c-.07-.22.03-.35.22-.41.42-.13,1.09-.28,1.85-.28,1.82,0,2.67,1.04,2.67,2.51v4.52c0,.2-.1.32-.29.32h-.15c-.2,0-.31-.08-.34-.28l-.07-.45c-.59.53-1.35.91-2.2.91-1.43,0-2.28-.85-2.28-2.09,0-1.49,1.25-2.07,3.07-2.07Zm-.69,3.31c.73,0,1.46-.34,2-.85v-1.67h-1.26c-1.29,0-2.14.29-2.14,1.29,0,.73.45,1.23,1.4,1.23Z"/>
      <path class="cls-5" d="m329.15,214.05c-.01-.2.1-.35.29-.35h.29c.2,0,.34.13.36.32l.57,4.41c.11.87.46,1.57,1.39,1.57.52,0,.98-.17,1.47-.42l.29-5.55c.03-.27.17-.34.37-.34h.27c.2,0,.34.1.31.34l-.39,7.42c-.07,1.37-.76,2.23-2.31,2.23h-.98c-.2,0-.34-.08-.35-.29l-.03-.25c-.01-.21.1-.31.29-.31h1.09c.99,0,1.29-.56,1.34-1.43l.07-.91c-.5.24-.98.38-1.48.38-1.41,0-2.1-.9-2.28-2.33l-.59-4.5Z"/>
      <path class="cls-5" d="m336.44,220.14c.04-.2.2-.28.39-.21.39.11.94.27,1.55.27,1.04,0,1.46-.48,1.46-1.21,0-1.54-3.39-1.2-3.39-3.5,0-1.23,1-1.97,2.37-1.97.62,0,1.13.11,1.43.21.21.06.25.22.21.41l-.06.18c-.06.17-.18.28-.43.21-.28-.07-.69-.15-1.13-.15-.9,0-1.37.42-1.37,1.12,0,1.46,3.39,1.23,3.39,3.5,0,1.26-.95,2.06-2.45,2.06-.73,0-1.4-.17-1.79-.29-.2-.06-.25-.22-.21-.42l.04-.2Z"/>
    </g>
    <line class="cls-10" x1="67.7" y1="191.58" x2="67.7" y2="259.12"/>
    <circle class="cls-11" cx="67.7" cy="192.6" r="2.74"/>
    <line class="cls-10" x1="213.19" y1="78.49" x2="213.19" y2="125.61"/>
    <line class="cls-10" x1="305.37" y1="235.75" x2="305.37" y2="306.12"/>
    <circle class="cls-11" cx="305.37" cy="236.76" r="2.74"/>
    <circle class="cls-11" cx="213.19" cy="79.51" r="2.74"/>
    <line class="cls-10" x1="450.14" y1="201.76" x2="409.08" y2="263.12"/>
    <line class="cls-10" x1="452.54" y1="202.59" x2="493.08" y2="262.12"/>
    <circle class="cls-11" cx="451.28" cy="201.76" r="2.74"/>
    <line class="cls-10" x1="511.16" y1="91.59" x2="544.08" y2="126.12"/>
    <circle class="cls-11" cx="511.16" cy="92.61" r="2.74"/>
    <g>
      <path class="cls-5" d="m193.46,16.2c1.56.47,3.04.91,4.63.91,2.37,0,3.38-1.25,3.38-3.02,0-4.13-8.16-2.91-8.16-8.79,0-3.12,2.39-4.91,5.77-4.91,1.56,0,2.81.36,4.34.94l-.62,1.98c-1.33-.47-2.37-.78-3.72-.78-2.11,0-3.2,1.04-3.2,2.78,0,3.69,8.16,2.86,8.16,8.79,0,3.09-2.31,5.12-5.95,5.12-1.82,0-3.28-.39-5.07-.94l.44-2.08Z"/>
      <path class="cls-5" d="m206.88,11.13c0-3.51,1.87-5.98,5.54-5.98,1.48,0,2.78.26,4.21.7l-.55,2c-1.2-.39-2.26-.62-3.54-.62-2.44,0-3.25,1.72-3.25,4.11v1.64c0,2.44.81,4.16,3.25,4.16,1.3,0,2.29-.23,3.54-.62l.57,1.98c-1.43.44-2.76.73-4.24.73-3.67,0-5.54-2.5-5.54-6.01v-2.08Z"/>
      <path class="cls-5" d="m227.26,17.58c-1.01,1.01-2.29,1.64-3.82,1.64-2.68,0-4.32-1.61-4.32-4.06,0-2.89,2.44-3.98,5.85-3.98h2v-.94c0-2-.7-3.02-2.81-3.02-1.33,0-2.34.23-3.61.62l-.55-1.95c1.46-.47,2.7-.75,4.16-.75,3.51,0,5.2,2,5.2,4.81v8.92h-1.92l-.18-1.3Zm-.29-4.58h-1.82c-2.11,0-3.61.44-3.61,2.13,0,1.22.73,2,2.26,2,1.14,0,2.31-.55,3.17-1.38v-2.76Z"/>
      <path class="cls-5" d="m233.29,0h2.39v16.12c0,.81.23,1.01.78,1.09l-.47,1.95c-1.51-.16-2.7-.68-2.7-2.78V0Z"/>
      <path class="cls-5" d="m239.53,1.74c0-.81.62-1.4,1.46-1.4s1.46.6,1.46,1.4-.62,1.43-1.46,1.43-1.46-.62-1.46-1.43Zm.26,3.74h2.39v12.82c0,.36-.23.57-.57.57h-1.82V5.49Z"/>
      <path class="cls-5" d="m246.24,5.49h1.98l.16,1.33c1.27-1.04,2.57-1.66,3.93-1.66,2.89,0,4.39,1.77,4.39,4.52v8.63c0,.36-.23.57-.57.57h-1.82v-8.76c0-1.92-.6-2.89-2.42-2.89-1.17,0-2.18.62-3.25,1.51v10.14h-2.39V5.49Z"/>
      <path class="cls-5" d="m262.41,22.05h3.95c1.4,0,2.16-.94,2.16-2.24v-2.29c-1.2.94-2.26,1.35-3.54,1.35-3.04,0-4.89-2-4.89-5.41v-2.89c0-3.43,1.85-5.43,4.86-5.43,1.38,0,2.55.6,3.8,1.64l.16-1.3h2v14.27c0,2.68-1.59,4.34-4.55,4.34h-3.64l-.31-2.05Zm.1-9c0,2.55.83,3.74,2.81,3.74,1.17,0,2.11-.57,3.2-1.38v-6.66c-.99-.81-2.05-1.53-3.2-1.53-1.98,0-2.81,1.22-2.81,3.74v2.08Z"/>
      <path class="cls-5" d="m280.9,16.2c1.56.47,3.04.91,4.63.91,2.37,0,3.38-1.25,3.38-3.02,0-4.13-8.16-2.91-8.16-8.79,0-3.12,2.39-4.91,5.77-4.91,1.56,0,2.81.36,4.34.94l-.62,1.98c-1.33-.47-2.37-.78-3.72-.78-2.11,0-3.2,1.04-3.2,2.78,0,3.69,8.16,2.86,8.16,8.79,0,3.09-2.31,5.12-5.95,5.12-1.82,0-3.28-.39-5.07-.94l.44-2.08Z"/>
      <path class="cls-5" d="m294.31,10.61c0-2.86,1.95-5.46,5.36-5.46s5.41,2.73,5.41,5.46v1.59c0,.34-.26.57-.57.57h-7.8v.99c0,1.48.65,3.38,3.22,3.38,1.4,0,2.63-.29,4-.7l.49,1.95c-1.53.49-2.91.83-4.47.83-3.82,0-5.64-2.68-5.64-5.46v-3.15Zm8.37.39v-.52c0-1.53-.78-3.25-2.99-3.25s-2.99,1.72-2.99,3.25v.52h5.98Z"/>
      <path class="cls-5" d="m308.48,5.49h1.92l.23,1.85c.81-1.14,2.16-2.16,3.48-2.16.42,0,.86.05,1.27.16l-.34,2.03c-.31-.08-.68-.1-1.01-.1-1.12,0-2.42,1.17-3.17,2.18v9.44h-2.39V5.49Z"/>
      <path class="cls-5" d="m316.67,5.49h2.47l2.42,7.28c.34,1.04.75,2.63,1.04,3.87.29-1.25.68-2.81,1.04-3.87l2.47-7.28h2.47l-4.63,13.39h-2.7l-4.58-13.39Z"/>
      <path class="cls-5" d="m331.02,1.74c0-.81.62-1.4,1.46-1.4s1.46.6,1.46,1.4-.62,1.43-1.46,1.43-1.46-.62-1.46-1.43Zm.26,3.74h2.39v12.82c0,.36-.23.57-.57.57h-1.82V5.49Z"/>
      <path class="cls-5" d="m337.21,11.13c0-3.51,1.87-5.98,5.54-5.98,1.48,0,2.78.26,4.21.7l-.55,2c-1.2-.39-2.26-.62-3.54-.62-2.44,0-3.25,1.72-3.25,4.11v1.64c0,2.44.81,4.16,3.25,4.16,1.3,0,2.29-.23,3.54-.62l.57,1.98c-1.43.44-2.76.73-4.24.73-3.67,0-5.54-2.5-5.54-6.01v-2.08Z"/>
      <path class="cls-5" d="m349.74,10.61c0-2.86,1.95-5.46,5.36-5.46s5.41,2.73,5.41,5.46v1.59c0,.34-.26.57-.57.57h-7.8v.99c0,1.48.65,3.38,3.22,3.38,1.4,0,2.63-.29,4-.7l.49,1.95c-1.53.49-2.91.83-4.47.83-3.82,0-5.64-2.68-5.64-5.46v-3.15Zm8.37.39v-.52c0-1.53-.78-3.25-2.99-3.25s-2.99,1.72-2.99,3.25v.52h5.98Z"/>
      <path class="cls-5" d="m369.63,11.08c0-3.61,2.08-5.93,5.59-5.93s5.62,2.31,5.62,5.93v2.21c0,3.64-2.11,5.93-5.62,5.93s-5.59-2.29-5.59-5.93v-2.21Zm2.42,2c0,2.52.83,4.06,3.17,4.06s3.17-1.53,3.17-4.06v-1.79c0-2.47-.81-4.06-3.17-4.06s-3.17,1.59-3.17,4.06v1.79Z"/>
      <path class="cls-5" d="m382.76,5.49h2.47l2.42,7.28c.34,1.04.75,2.63,1.04,3.87.29-1.25.68-2.81,1.04-3.87l2.47-7.28h2.47l-4.63,13.39h-2.7l-4.58-13.39Z"/>
      <path class="cls-5" d="m396.59,10.61c0-2.86,1.95-5.46,5.36-5.46s5.41,2.73,5.41,5.46v1.59c0,.34-.26.57-.57.57h-7.8v.99c0,1.48.65,3.38,3.22,3.38,1.4,0,2.63-.29,4-.7l.49,1.95c-1.53.49-2.91.83-4.47.83-3.82,0-5.64-2.68-5.64-5.46v-3.15Zm8.37.39v-.52c0-1.53-.78-3.25-2.99-3.25s-2.99,1.72-2.99,3.25v.52h5.98Z"/>
      <path class="cls-5" d="m410.76,5.49h1.92l.23,1.85c.81-1.14,2.16-2.16,3.48-2.16.42,0,.86.05,1.27.16l-.34,2.03c-.31-.08-.68-.1-1.01-.1-1.12,0-2.42,1.17-3.17,2.18v9.44h-2.39V5.49Z"/>
      <path class="cls-5" d="m427.01,7.28l-2.16-.21v-1.59h2.16V1.2h2.39v4.29h3.2v1.79h-3.2v7.64c0,1.61.83,2.21,1.95,2.21.6,0,1.22-.1,1.85-.23l.36,2c-.75.21-1.56.31-2.31.31-2.63,0-4.24-1.48-4.24-4v-7.93Z"/>
      <path class="cls-5" d="m435.78,1.74c0-.81.62-1.4,1.46-1.4s1.46.6,1.46,1.4-.62,1.43-1.46,1.43-1.46-.62-1.46-1.43Zm.26,3.74h2.39v12.82c0,.36-.23.57-.57.57h-1.82V5.49Z"/>
      <path class="cls-5" d="m442.48,5.49h1.98l.16,1.33c.99-.88,2.26-1.66,3.69-1.66,1.82,0,3.07.7,3.72,1.87,1.12-.99,2.52-1.87,4.08-1.87,2.89,0,4.39,1.77,4.39,4.52v8.63c0,.36-.23.57-.57.57h-1.82v-8.76c0-1.92-.6-2.89-2.42-2.89-1.12,0-2.18.68-3.12,1.51.08.31.1.65.1.99v9.15h-2.39v-8.76c0-1.92-.6-2.89-2.39-2.89-1.17,0-2.13.73-3.02,1.51v10.14h-2.39V5.49Z"/>
      <path class="cls-5" d="m463.91,10.61c0-2.86,1.95-5.46,5.36-5.46s5.41,2.73,5.41,5.46v1.59c0,.34-.26.57-.57.57h-7.8v.99c0,1.48.65,3.38,3.22,3.38,1.4,0,2.63-.29,4-.7l.49,1.95c-1.53.49-2.91.83-4.47.83-3.82,0-5.64-2.68-5.64-5.46v-3.15Zm8.37.39v-.52c0-1.53-.78-3.25-2.99-3.25s-2.99,1.72-2.99,3.25v.52h5.98Z"/>
    </g>
    <line class="cls-7" x1="30.11" y1="91.38" x2="34.03" y2="91.38"/>
    <g>
      <line class="cls-8" x1="30.11" y1="91.38" x2="615.58" y2="91.38"/>
      <line class="cls-8" x1="30.11" y1="318.06" x2="615.58" y2="318.06"/>
      <line class="cls-8" x1="30.11" y1="136.72" x2="615.58" y2="136.72"/>
      <line class="cls-8" x1="30.11" y1="182.05" x2="615.58" y2="182.05"/>
      <line class="cls-8" x1="30.11" y1="227.39" x2="615.58" y2="227.39"/>
      <line class="cls-8" x1="30.11" y1="272.72" x2="615.58" y2="272.72"/>
    </g>
    <line class="cls-7" x1="30.11" y1="136.72" x2="34.03" y2="136.72"/>
    <line class="cls-7" x1="30.11" y1="182.05" x2="34.03" y2="182.05"/>
    <line class="cls-7" x1="30.11" y1="227.39" x2="34.03" y2="227.39"/>
    <line class="cls-7" x1="30.11" y1="272.72" x2="34.03" y2="272.72"/>
    <line class="cls-7" x1="30.11" y1="318.06" x2="34.03" y2="318.06"/>
    <rect class="cls-3" x="48.2" y="272.05" width="42.1" height="45.2"/>
    <rect class="cls-3" x="144.08" y="183.05" width="42.1" height="135.2"/>
    <rect class="cls-3" x="192.02" y="138.05" width="42.1" height="180.2"/>
    <rect class="cls-3" x="382.79" y="272.05" width="42.1" height="45.2"/>
    <rect class="cls-3" x="477.67" y="272.05" width="42.1" height="45.2"/>
    <rect class="cls-3" x="525.62" y="137.05" width="42.1" height="180.2"/>
    <rect class="cls-3" x="573.56" y="227.05" width="42.1" height="90.2"/>
    <rect class="cls-4" x="48.2" y="272.05" width="42.1" height="45.2"/>
    <rect class="cls-4" x="144.08" y="183.05" width="42.1" height="135.2"/>
    <rect class="cls-4" x="192.02" y="138.05" width="42.1" height="180.2"/>
    <rect class="cls-4" x="382.79" y="272.05" width="42.1" height="45.2"/>
    <rect class="cls-4" x="477.67" y="272.05" width="42.1" height="45.2"/>
    <rect class="cls-4" x="525.62" y="137.05" width="42.1" height="180.2"/>
    <rect class="cls-4" x="573.56" y="227.05" width="42.1" height="90.2"/>
    <g>
      <rect class="cls-9" x="48.2" y="272.05" width="42.1" height="45.2"/>
      <rect class="cls-9" x="144.08" y="183.05" width="42.1" height="135.2"/>
      <rect class="cls-9" x="192.02" y="138.05" width="42.1" height="180.2"/>
      <rect class="cls-9" x="382.79" y="272.05" width="42.1" height="45.2"/>
      <rect class="cls-9" x="477.67" y="272.05" width="42.1" height="45.2"/>
      <rect class="cls-9" x="525.62" y="137.05" width="42.1" height="180.2"/>
      <rect class="cls-9" x="573.56" y="227.05" width="42.1" height="90.2"/>
    </g>
  </g>
</svg>