<svg width="72" height="72" viewBox="0 0 72 72" fill="none" xmlns="http://www.w3.org/2000/svg">
<g filter="url(#filter0_f_353_192)">
<mask id="path-1-inside-1_353_192" fill="white">
<path fill-rule="evenodd" clip-rule="evenodd" d="M36 4H4V68H68V36C50.3269 36 36 21.6731 36 4Z"/>
</mask>
<path d="M4 4V2H2V4H4ZM36 4H38V2H36V4ZM4 68H2V70H4V68ZM68 68V70H70V68H68ZM68 36H70V34H68V36ZM4 6H36V2H4V6ZM6 68V4H2V68H6ZM68 66H4V70H68V66ZM66 36V68H70V36H66ZM68 34C51.4315 34 38 20.5685 38 4H34C34 22.7777 49.2223 38 68 38V34Z" fill="#4543A7" mask="url(#path-1-inside-1_353_192)"/>
</g>
<defs>
<filter id="filter0_f_353_192" x="0" y="0" width="72" height="72" filterUnits="userSpaceOnUse" color-interpolation-filters="sRGB">
<feFlood flood-opacity="0" result="BackgroundImageFix"/>
<feBlend mode="normal" in="SourceGraphic" in2="BackgroundImageFix" result="shape"/>
<feGaussianBlur stdDeviation="2" result="effect1_foregroundBlur_353_192"/>
</filter>
</defs>
</svg>
