<svg width="64" height="64" viewBox="0 0 64 64" fill="none" xmlns="http://www.w3.org/2000/svg">
<mask id="path-1-inside-1_365_201" fill="white">
<path fill-rule="evenodd" clip-rule="evenodd" d="M32.0154 1.00215C31.9984 0.450123 31.5523 0 31 0H1C0.447715 0 0 0.447715 0 1V63C0 63.5523 0.447715 64 1 64H63C63.5523 64 64 63.5523 64 63V33C64 32.4477 63.5499 32.0016 62.9979 31.9846C46.1212 31.4654 32.5346 17.8788 32.0154 1.00215Z"/>
</mask>
<path d="M62.9979 31.9846L62.9364 33.9837L62.9979 31.9846ZM32.0154 1.00215L34.0144 0.940651L32.0154 1.00215ZM1 2H31V-2H1V2ZM2 63V1H-2V63H2ZM63 62H1V66H63V62ZM62 33V63H66V33H62ZM63.0593 29.9856C47.2391 29.4989 34.5011 16.7609 34.0144 0.940651L30.0163 1.06364C30.568 18.9966 45.0034 33.432 62.9364 33.9837L63.0593 29.9856ZM66 33C66 31.3221 64.6459 30.0344 63.0593 29.9856L62.9364 33.9837C62.4539 33.9688 62 33.5734 62 33H66ZM63 66C64.6569 66 66 64.6569 66 63H62C62 62.4477 62.4477 62 63 62V66ZM-2 63C-2 64.6569 -0.656854 66 1 66V62C1.55228 62 2 62.4477 2 63H-2ZM31 2C30.4266 2 30.0312 1.54615 30.0163 1.06364L34.0144 0.940651C33.9656 -0.645903 32.6779 -2 31 -2V2ZM1 -2C-0.656854 -2 -2 -0.656854 -2 1H2C2 1.55228 1.55228 2 1 2V-2Z" fill="#4543A7" mask="url(#path-1-inside-1_365_201)"/>
</svg>
