<svg width="198" height="48" viewBox="0 0 198 48" fill="none" xmlns="http://www.w3.org/2000/svg">
<path d="M47.4176 30.2661H36.4064C36.4047 30.0105 36.3982 29.7561 36.3866 29.5029H46.6545V0.763135H17.9155V11.2734C17.704 11.2665 17.4915 11.2629 17.2783 11.2629C17.2363 11.2629 17.1943 11.2634 17.1523 11.2637V0H47.4176V30.2661Z" fill="#F5F1EA"></path>
<path d="M15.3177 13.9933C7.12053 14.9652 0.763154 21.9383 0.763125 30.397C0.763176 39.5207 8.15933 46.9168 17.2828 46.9169C25.8314 46.9169 32.8636 40.4238 33.7161 32.1003H34.4826C33.627 40.846 26.2532 47.6801 17.2828 47.6801C7.73786 47.6799 5.11306e-05 39.9422 0 30.397C2.90112e-05 21.5163 6.69807 14.2012 15.3177 13.2253V13.9933Z" fill="#F5F1EA"></path>
<path d="M17.2831 13.4954C26.5738 13.4954 34.1125 20.9918 34.1829 30.2661H17.1523V13.4969C17.1959 13.4965 17.2395 13.4954 17.2831 13.4954Z" fill="#F5F1EA"></path>
<path d="M195.583 32.6878V15.6042H197.111V32.6878H195.583ZM196.347 11.75C195.977 11.75 195.664 11.6227 195.41 11.3681C195.155 11.1134 195.028 10.8009 195.028 10.4305C195.028 10.0602 195.155 9.74767 195.41 9.49303C195.664 9.2384 195.977 9.11108 196.347 9.11108C196.741 9.11108 197.053 9.2384 197.285 9.49303C197.539 9.74767 197.667 10.0602 197.667 10.4305C197.667 10.8009 197.539 11.1134 197.285 11.3681C197.053 11.6227 196.741 11.75 196.347 11.75Z" fill="#F5F1EA"></path>
<path d="M183.565 33.0351C182.315 33.0351 181.216 32.8267 180.266 32.4101C179.317 31.9703 178.577 31.3684 178.044 30.6045C177.512 29.8174 177.246 28.9147 177.246 27.8961C177.246 26.322 177.859 25.0604 179.086 24.1114C180.313 23.1391 181.945 22.653 183.982 22.653C186.019 22.653 187.824 23.1507 189.398 24.1461V21.2988C189.398 19.7247 188.97 18.5557 188.114 17.7918C187.257 17.0048 186.03 16.6113 184.433 16.6113C183.646 16.6113 182.824 16.7386 181.968 16.9932C181.111 17.2478 180.128 17.6645 179.016 18.2432L178.357 16.889C179.445 16.3335 180.486 15.9284 181.482 15.6738C182.477 15.396 183.472 15.2571 184.468 15.2571C186.528 15.2571 188.114 15.7548 189.225 16.7502C190.359 17.7224 190.926 19.146 190.926 21.021V32.6879H189.398V30.7781C188.611 31.4957 187.732 32.0513 186.759 32.4448C185.787 32.8383 184.722 33.0351 183.565 33.0351ZM178.773 27.8614C178.773 28.9725 179.236 29.8869 180.162 30.6045C181.088 31.3221 182.257 31.6809 183.669 31.6809C184.896 31.6809 185.972 31.4726 186.898 31.0559C187.824 30.6161 188.658 30.0026 189.398 29.2156V25.6739C188.634 25.0952 187.801 24.6669 186.898 24.3891C185.996 24.1114 184.966 23.9725 183.808 23.9725C182.303 23.9725 181.088 24.3313 180.162 25.0489C179.236 25.7665 178.773 26.704 178.773 27.8614Z" fill="#F5F1EA"></path>
<path d="M172.403 32.8613C172.033 32.8613 171.72 32.734 171.465 32.4794C171.211 32.2248 171.083 31.9122 171.083 31.5419C171.083 31.1715 171.211 30.859 171.465 30.6044C171.72 30.3497 172.033 30.2224 172.403 30.2224C172.773 30.2224 173.086 30.3497 173.34 30.6044C173.595 30.859 173.722 31.1715 173.722 31.5419C173.722 31.9122 173.595 32.2248 173.34 32.4794C173.086 32.734 172.773 32.8613 172.403 32.8613Z" fill="#F5F1EA"></path>
<path d="M157.172 40.049C156.917 40.049 156.662 40.0258 156.408 39.9795C156.153 39.9564 155.933 39.9332 155.748 39.9101V38.3823C156.118 38.4749 156.57 38.5212 157.102 38.5212C158.561 38.5212 159.706 37.5953 160.54 35.7434L161.929 32.6183L154.811 15.6042H156.547L162.762 30.778L169.255 15.6042H170.956L162.067 35.8823C161.628 36.8777 161.165 37.6763 160.679 38.2781C160.216 38.9031 159.695 39.3545 159.116 39.6323C158.561 39.9101 157.912 40.049 157.172 40.049Z" fill="#F5F1EA"></path>
<path d="M146.258 33.0353C144.684 33.0353 143.249 32.6418 141.953 31.8548C140.657 31.0677 139.626 30.0029 138.863 28.6603C138.122 27.3177 137.751 25.813 137.751 24.1463C137.751 22.4796 138.11 20.975 138.828 19.6324C139.569 18.2898 140.576 17.2249 141.849 16.4379C143.122 15.6508 144.545 15.2573 146.12 15.2573C147.601 15.2573 148.92 15.6508 150.078 16.4379C151.235 17.2249 152.15 18.2782 152.821 19.5977C153.515 20.894 153.863 22.3407 153.863 23.938V24.563H139.314C139.383 25.8825 139.731 27.0746 140.356 28.1394C140.981 29.1811 141.802 30.0144 142.821 30.6395C143.863 31.2645 145.008 31.577 146.258 31.577C147.231 31.577 148.191 31.4265 149.14 31.1256C150.089 30.8015 150.9 30.3733 151.571 29.8408L152.474 31.0561C151.548 31.7274 150.564 32.2251 149.522 32.5492C148.481 32.8733 147.393 33.0353 146.258 33.0353ZM139.383 23.1046H152.231C152.115 21.9241 151.779 20.8592 151.224 19.9102C150.668 18.9379 149.951 18.1625 149.071 17.5837C148.191 17.005 147.196 16.7157 146.085 16.7157C144.904 16.7157 143.828 16.9935 142.856 17.549C141.907 18.1046 141.12 18.8685 140.495 19.8407C139.893 20.7898 139.522 21.8778 139.383 23.1046Z" fill="#F5F1EA"></path>
<path d="M124.105 32.6878V8.38195L125.633 8V23.5557L135.286 15.6043H137.439L127.369 23.8683L137.855 32.6878H135.529L125.633 24.2849V32.6878H124.105Z" fill="#F5F1EA"></path>
<path d="M112.087 33.0353C110.837 33.0353 109.737 32.827 108.788 32.4103C107.839 31.9705 107.098 31.3686 106.566 30.6047C106.033 29.8177 105.767 28.9149 105.767 27.8964C105.767 26.3223 106.381 25.0607 107.607 24.1116C108.834 23.1394 110.466 22.6532 112.503 22.6532C114.54 22.6532 116.346 23.1509 117.92 24.1463V21.2991C117.92 19.725 117.492 18.556 116.635 17.7921C115.779 17.005 114.552 16.6115 112.955 16.6115C112.168 16.6115 111.346 16.7388 110.489 16.9935C109.633 17.2481 108.649 17.6648 107.538 18.2435L106.878 16.8893C107.966 16.3337 109.008 15.9286 110.003 15.674C110.999 15.3962 111.994 15.2573 112.989 15.2573C115.049 15.2573 116.635 15.755 117.746 16.7504C118.881 17.7226 119.448 19.1463 119.448 21.0213V32.6881H117.92V30.7784C117.133 31.496 116.253 32.0515 115.281 32.445C114.309 32.8386 113.244 33.0353 112.087 33.0353ZM107.295 27.8616C107.295 28.9728 107.758 29.8871 108.684 30.6047C109.61 31.3223 110.779 31.6811 112.191 31.6811C113.418 31.6811 114.494 31.4728 115.42 31.0561C116.346 30.6163 117.179 30.0029 117.92 29.2158V25.6741C117.156 25.0954 116.323 24.6672 115.42 24.3894C114.517 24.1116 113.487 23.9727 112.33 23.9727C110.825 23.9727 109.61 24.3315 108.684 25.0491C107.758 25.7667 107.295 26.7042 107.295 27.8616Z" fill="#F5F1EA"></path>
<path d="M101.222 33.035C99.9258 33.035 98.9304 32.7109 98.236 32.0628C97.5416 31.4146 97.1943 30.5118 97.1943 29.3544V16.9931H93.4443V15.6042H97.1943V11.2986L98.7221 10.8125V15.6042H104V16.9931H98.7221V28.8336C98.7221 29.8058 98.9304 30.5118 99.3471 30.9516C99.7869 31.3683 100.505 31.5766 101.5 31.5766C102.032 31.5766 102.484 31.5419 102.854 31.4725C103.224 31.3799 103.606 31.2526 104 31.0905V32.5836C103.56 32.7456 103.109 32.8614 102.646 32.9308C102.183 33.0003 101.708 33.035 101.222 33.035Z" fill="#F5F1EA"></path>
<path d="M83.8746 33.0353C82.6246 33.0353 81.5251 32.827 80.576 32.4103C79.6269 31.9705 78.8862 31.3686 78.3538 30.6047C77.8214 29.8177 77.5552 28.9149 77.5552 27.8964C77.5552 26.3223 78.1686 25.0607 79.3955 24.1116C80.6223 23.1394 82.2542 22.6532 84.2913 22.6532C86.3283 22.6532 88.1339 23.1509 89.7079 24.1463V21.2991C89.7079 19.725 89.2797 18.556 88.4232 17.7921C87.5667 17.005 86.3399 16.6115 84.7427 16.6115C83.9556 16.6115 83.1339 16.7388 82.2774 16.9935C81.4209 17.2481 80.4371 17.6648 79.326 18.2435L78.6663 16.8893C79.7542 16.3337 80.7959 15.9286 81.7913 15.674C82.7867 15.3962 83.782 15.2573 84.7774 15.2573C86.8376 15.2573 88.4232 15.755 89.5343 16.7504C90.6686 17.7226 91.2357 19.1463 91.2357 21.0213V32.6881H89.7079V30.7784C88.9209 31.496 88.0413 32.0515 87.0691 32.445C86.0968 32.8386 85.032 33.0353 83.8746 33.0353ZM79.083 27.8616C79.083 28.9728 79.5459 29.8871 80.4718 30.6047C81.3978 31.3223 82.5667 31.6811 83.9788 31.6811C85.2056 31.6811 86.282 31.4728 87.2079 31.0561C88.1339 30.6163 88.9672 30.0029 89.7079 29.2158V25.6741C88.9441 25.0954 88.1107 24.6672 87.2079 24.3894C86.3052 24.1116 85.2751 23.9727 84.1177 23.9727C82.613 23.9727 81.3978 24.3315 80.4718 25.0491C79.5459 25.7667 79.083 26.7042 79.083 27.8616Z" fill="#F5F1EA"></path>
<path d="M66.608 33.035C65.0339 33.035 63.5988 32.6415 62.3025 31.8545C61.0062 31.0674 59.9761 30.0026 59.2122 28.66C58.4714 27.3174 58.1011 25.8127 58.1011 24.146C58.1011 22.4793 58.4714 20.9747 59.2122 19.6321C59.9761 18.2895 61.0062 17.2246 62.3025 16.4376C63.5988 15.6506 65.0339 15.257 66.608 15.257C67.696 15.257 68.7492 15.4769 69.7677 15.9168C70.7863 16.3334 71.689 16.9006 72.4761 17.6182V8.38195L74.0038 8V32.6878H72.4761V30.6392C70.9251 32.2364 68.9691 33.035 66.608 33.035ZM66.608 31.5767C67.8812 31.5767 69.027 31.322 70.0455 30.8128C71.0872 30.2804 71.8974 29.5859 72.4761 28.7294V19.5626C71.8742 18.7524 71.0525 18.0811 70.0108 17.5487C68.9691 16.9932 67.8349 16.7154 66.608 16.7154C65.3117 16.7154 64.1312 17.051 63.0663 17.7223C62.0247 18.3705 61.1914 19.2617 60.5664 20.396C59.9645 21.5071 59.6636 22.7571 59.6636 24.146C59.6636 25.5349 59.9645 26.7965 60.5664 27.9308C61.1914 29.0419 62.0247 29.9331 63.0663 30.6044C64.1312 31.2526 65.3117 31.5767 66.608 31.5767Z" fill="#F5F1EA"></path>
</svg>