<svg width="48" height="48" viewBox="0 0 48 48" fill="none" xmlns="http://www.w3.org/2000/svg">
<path d="M47.4176 30.2661H36.4064C36.4047 30.0105 36.3982 29.7561 36.3866 29.5029H46.6545V0.763135H17.9155V11.2734C17.704 11.2665 17.4915 11.2629 17.2783 11.2629C17.2363 11.2629 17.1943 11.2634 17.1523 11.2637V0H47.4176V30.2661Z" fill="#F5F1EA"></path>
<path d="M15.3177 13.9933C7.12053 14.9652 0.763154 21.9383 0.763125 30.397C0.763176 39.5207 8.15933 46.9168 17.2828 46.9169C25.8314 46.9169 32.8636 40.4238 33.7161 32.1003H34.4826C33.627 40.846 26.2532 47.6801 17.2828 47.6801C7.73786 47.6799 5.11306e-05 39.9422 0 30.397C2.90112e-05 21.5163 6.69807 14.2012 15.3177 13.2253V13.9933Z" fill="#F5F1EA"></path>
<path d="M17.2831 13.4954C26.5738 13.4954 34.1125 20.9918 34.1829 30.2661H17.1523V13.4969C17.1959 13.4965 17.2395 13.4954 17.2831 13.4954Z" fill="#F5F1EA"></path>
</svg>